<svg version="1.1" id="Layer_1" xmlns="http://www.w3.org/2000/svg" xmlns:xlink="http://www.w3.org/1999/xlink" x="0px" y="0px"
	 width="100%" viewBox="0 0 1563 1563" enable-background="new 0 0 1563 1563" xml:space="preserve">
<path fill="#FFFFFF" opacity="1.000000" stroke="none" 
	d="
M758.000000,1564.000000 
	C505.333374,1564.000000 253.166763,1564.000000 1.000102,1564.000000 
	C1.000068,1043.000122 1.000068,522.000305 1.000034,1.000311 
	C521.999756,1.000207 1042.999512,1.000207 1563.999512,1.000104 
	C1563.999634,521.999695 1563.999634,1042.999390 1563.999756,1563.999512 
	C1295.500000,1564.000000 1027.000000,1564.000000 758.000000,1564.000000 
M207.499985,714.865295 
	C238.583588,714.865295 269.667206,714.865295 300.007690,714.865295 
	C300.007690,701.602417 300.242065,689.133179 299.962646,676.675476 
	C299.200195,642.681763 295.500519,608.978394 288.789795,575.650574 
	C282.459290,544.211121 273.454803,513.638367 257.438293,485.547211 
	C250.830124,473.957245 243.097900,463.272369 231.290314,454.062683 
	C224.723068,462.615784 217.677689,470.437927 212.161377,479.220520 
	C192.740051,510.141449 182.758682,544.608887 175.965927,580.100464 
	C167.800552,622.763794 165.631577,665.924255 166.039413,709.263489 
	C166.056122,711.039917 166.393723,712.813293 166.611191,714.865295 
	C180.204437,714.865295 193.352203,714.865295 207.499985,714.865295 
M480.177063,654.500000 
	C480.177063,674.247131 480.177063,693.994263 480.177063,713.774109 
	C488.687592,713.774109 496.445343,713.774109 504.904938,713.774109 
	C504.904938,698.574890 504.904938,683.646057 504.904938,668.717285 
	C512.435730,679.357910 519.058533,690.095642 525.625916,700.867188 
	C529.386902,707.035828 538.682495,706.942139 542.392456,700.654846 
	C547.973511,691.196716 553.544373,681.732483 559.163208,672.296875 
	C560.194763,670.564575 561.434204,668.956055 562.577759,667.290466 
	C562.941956,667.414001 563.306091,667.537537 563.670288,667.661072 
	C563.670288,683.039551 563.670288,698.417969 563.670288,713.706909 
	C572.016907,713.706909 579.759766,713.706909 587.585815,713.706909 
	C587.585815,682.812012 587.585815,652.275024 587.585815,621.236206 
	C582.130920,621.236206 576.972107,621.597778 571.890076,621.128357 
	C567.356567,620.709656 565.084961,622.567688 562.924133,626.319824 
	C553.713928,642.312500 544.187256,658.122986 534.440857,674.565491 
	C533.074280,672.451233 531.973145,670.837219 530.961792,669.168823 
	C522.164001,654.656494 513.411743,640.116333 504.554718,625.640259 
	C503.562775,624.018982 502.077820,621.593445 500.695312,621.504639 
	C493.972351,621.072754 487.206451,621.309448 480.177246,621.309448 
	C480.177246,632.546082 480.177246,643.023071 480.177063,654.500000 
M915.234985,686.500000 
	C915.234985,695.591858 915.234985,704.683655 915.234985,713.747131 
	C924.454041,713.747131 932.878967,713.747131 941.857788,713.747131 
	C941.857788,705.700195 941.857788,697.952576 941.857788,689.624634 
	C944.684082,689.624634 947.010803,689.896423 949.249939,689.568970 
	C954.169373,688.849548 957.275513,690.727295 959.798035,695.006775 
	C963.088257,700.588867 966.977844,705.826538 970.767761,711.098694 
	C971.643433,712.316956 973.136841,713.876709 974.386475,713.913757 
	C982.786255,714.162781 991.196960,714.043396 1000.552368,714.043396 
	C993.749146,703.923889 987.503723,694.634155 981.222839,685.291565 
	C982.209351,684.481384 982.674683,684.008362 983.221130,683.663879 
	C996.400757,675.354248 1000.821899,663.173279 997.974121,648.380371 
	C995.157227,633.747986 985.302429,624.636597 971.134460,623.153381 
	C953.010498,621.255981 934.619873,621.903259 916.343445,621.483582 
	C916.091675,621.477783 915.831055,621.858765 915.234985,622.324646 
	C915.234985,643.208435 915.234985,664.354248 915.234985,686.500000 
M794.762146,696.347168 
	C794.762146,686.115173 794.762146,675.883240 794.762146,665.352722 
	C791.425171,665.352722 788.942505,665.291687 786.463928,665.365784 
	C781.679016,665.508728 774.840332,663.911438 772.650085,666.390381 
	C770.097473,669.279480 771.435181,675.759277 771.393677,680.683533 
	C771.291992,692.772156 770.188477,693.923950 757.782349,693.979797 
	C756.949890,693.983521 756.115417,694.010010 755.285217,693.964844 
	C740.824402,693.177246 731.094299,682.839355 730.986206,668.159058 
	C730.874268,652.963989 740.251953,642.551636 754.911194,641.520447 
	C764.810486,640.824158 773.166199,644.136353 780.163330,651.651245 
	C785.778992,646.436035 791.078979,641.513855 796.801392,636.199463 
	C794.217041,633.789856 792.123535,631.408142 789.625305,629.579346 
	C774.879761,618.785339 758.395447,617.460632 741.139954,621.193420 
	C722.885742,625.142212 708.346313,639.891602 705.489197,658.708801 
	C702.493347,678.440063 707.764954,695.767517 725.169006,707.101013 
	C745.583801,720.395020 766.814880,717.994263 788.012878,708.318970 
	C792.988831,706.047852 795.936218,703.071106 794.762146,696.347168 
M1095.871704,664.196899 
	C1099.083374,645.212524 1092.615967,631.560547 1076.350952,625.127075 
	C1070.448608,622.792419 1063.780151,621.687744 1057.401367,621.412964 
	C1044.427124,620.854065 1031.407959,621.423584 1018.415955,621.138184 
	C1014.009644,621.041382 1013.236023,622.717712 1013.256836,626.645996 
	C1013.401062,653.974915 1013.335144,681.304993 1013.336548,708.634705 
	C1013.336670,710.258179 1013.336548,711.881592 1013.336548,713.664673 
	C1022.433167,713.664673 1030.962280,713.664673 1040.099854,713.664673 
	C1040.099854,705.558472 1040.099854,697.830017 1040.099854,689.885803 
	C1046.535034,689.885803 1052.357910,689.961304 1058.178345,689.872009 
	C1077.247314,689.579346 1090.347778,680.865845 1095.871704,664.196899 
M615.249390,668.698120 
	C608.701660,683.562134 602.153870,698.426147 595.270996,714.050964 
	C600.027649,714.050964 603.811462,714.076050 607.594849,714.044495 
	C612.253784,714.005615 618.059204,715.590332 621.256165,713.395630 
	C624.615234,711.089539 625.476746,705.145020 627.428772,700.790039 
	C627.701233,700.182190 627.804138,699.354614 628.268860,699.003418 
	C629.691772,697.927979 631.234741,696.233704 632.762756,696.199585 
	C643.586060,695.957947 654.419739,695.957581 665.242920,696.201599 
	C666.754944,696.235718 668.879272,697.689392 669.593323,699.069153 
	C671.573853,702.895752 672.855408,707.077515 674.643799,711.014160 
	C675.179688,712.193909 676.451416,713.864380 677.424805,713.890991 
	C685.783447,714.119324 694.151062,714.022034 703.160583,714.022034 
	C689.570374,683.361877 676.393494,653.550232 663.044373,623.815857 
	C662.492310,622.586060 660.356262,621.416626 658.908142,621.352783 
	C652.756104,621.081482 646.578125,621.413330 640.424072,621.166077 
	C637.242188,621.038269 635.718750,622.225952 634.485718,625.086060 
	C628.296143,639.443604 621.896179,653.710449 615.249390,668.698120 
M868.785950,625.553894 
	C868.020752,622.363647 866.272278,620.959473 862.734924,621.152100 
	C856.921326,621.468628 851.072327,621.390320 845.249390,621.175842 
	C842.121643,621.060608 840.630737,622.149109 839.343567,625.090332 
	C827.137817,652.979919 814.725037,680.778931 802.400574,708.616760 
	C801.705261,710.187134 801.261597,711.869019 800.592285,713.814514 
	C802.316711,713.927917 803.302979,714.046570 804.289551,714.048889 
	C810.953369,714.064392 817.624207,714.214844 824.275085,713.920166 
	C825.614441,713.860779 827.418762,712.352600 828.072876,711.044373 
	C829.927551,707.335266 831.457397,703.438416 832.802246,699.508484 
	C833.699829,696.885559 835.079407,695.906921 837.901245,695.999756 
	C844.391541,696.213257 850.893677,696.035156 857.390442,696.088074 
	C862.540649,696.130066 868.851685,694.498718 872.510132,696.885742 
	C876.104980,699.231323 877.007507,705.705078 879.087158,710.369263 
	C879.357910,710.976440 879.450806,711.755371 879.892456,712.173462 
	C880.668335,712.908142 881.641602,713.938660 882.546936,713.953613 
	C890.790222,714.090088 899.036682,714.033752 908.035400,714.033752 
	C894.826294,684.286743 881.946655,655.281616 868.785950,625.553894 
M1462.073120,714.065674 
	C1463.208252,713.994080 1464.343384,713.922424 1465.710693,713.836121 
	C1465.499023,712.997009 1465.429321,712.341614 1465.175537,711.767639 
	C1452.261475,682.564148 1439.375366,653.347900 1426.272827,624.229126 
	C1425.627319,622.794373 1423.128784,621.492920 1421.406738,621.373535 
	C1416.103394,621.005615 1410.735107,621.549561 1405.436523,621.148987 
	C1400.979004,620.812073 1398.696289,622.222778 1396.853271,626.487366 
	C1384.912964,654.117310 1372.644043,681.605225 1360.499390,709.147034 
	C1359.871826,710.570312 1359.395874,712.060547 1358.829834,713.571716 
	C1359.781738,713.833191 1360.099731,713.995300 1360.418579,713.997070 
	C1365.746826,714.026794 1371.075317,714.043274 1376.403687,714.049133 
	C1385.157715,714.058777 1385.153809,714.053162 1388.362671,706.115295 
	C1389.297363,703.803040 1389.917114,701.257568 1391.326172,699.278198 
	C1392.363281,697.821289 1394.427979,696.250793 1396.072632,696.208557 
	C1406.723633,695.935608 1417.387085,696.186035 1428.041382,695.990356 
	C1430.941406,695.937195 1432.164307,697.059448 1433.057129,699.577515 
	C1434.445557,703.493042 1435.908203,707.423828 1437.841309,711.082947 
	C1438.565063,712.453247 1440.655396,713.837708 1442.188843,713.915588 
	C1448.500977,714.236389 1454.838379,714.057495 1462.073120,714.065674 
M1125.772705,642.195496 
	C1115.326050,665.881531 1104.879395,689.567566 1094.079834,714.053650 
	C1098.755981,714.053650 1102.378296,714.085754 1105.999756,714.045715 
	C1110.823242,713.992493 1116.753540,715.563782 1120.155518,713.321899 
	C1123.512207,711.109863 1124.308350,705.014404 1126.234375,700.625610 
	C1126.434937,700.168518 1126.567505,699.578430 1126.926270,699.312134 
	C1128.455811,698.176941 1130.035278,696.253052 1131.638062,696.211304 
	C1142.296021,695.934021 1152.965576,696.149780 1163.628906,696.010132 
	C1166.373413,695.974243 1167.919556,696.790039 1168.805054,699.459656 
	C1170.061279,703.246887 1171.512695,706.986938 1173.173340,710.613220 
	C1173.784546,711.947815 1175.195557,713.842163 1176.295654,713.879028 
	C1184.516846,714.154846 1192.751465,714.028992 1201.474854,714.028992 
	C1200.894531,712.162292 1200.663696,711.038818 1200.209595,710.014343 
	C1187.529541,681.414124 1174.869751,652.804504 1162.002686,624.288452 
	C1161.354126,622.851074 1158.926392,621.474121 1157.250732,621.376099 
	C1151.272095,621.026245 1145.254639,621.400574 1139.263916,621.176392 
	C1136.140869,621.059509 1134.443359,622.025146 1133.276001,625.033020 
	C1131.110840,630.612549 1128.492920,636.016479 1125.772705,642.195496 
M801.756409,834.500000 
	C801.756409,814.736328 801.756409,794.972656 801.756409,774.982788 
	C796.292847,774.982788 791.355713,774.982788 785.783325,774.982788 
	C785.783325,793.626282 785.783325,812.057922 785.783325,831.518066 
	C771.604370,814.046692 757.800537,797.813721 744.965332,780.848022 
	C739.677002,773.857727 733.743591,774.269043 726.980713,775.199341 
	C726.980713,803.275574 726.980713,831.015381 726.980713,858.688721 
	C732.192688,858.688721 737.078857,858.688721 742.556946,858.688721 
	C742.556946,840.207825 742.556946,822.069641 742.556946,802.802429 
	C744.572632,805.065002 745.807312,806.347107 746.926453,807.723206 
	C758.896423,822.440979 771.313904,836.828369 782.600586,852.053589 
	C787.922119,859.232117 793.909302,859.875977 801.756287,858.573242 
	C801.756287,850.759766 801.756287,843.129883 801.756409,834.500000 
M1224.162842,690.500000 
	C1224.162842,698.260864 1224.162842,706.021790 1224.162842,713.696655 
	C1233.343872,713.696655 1241.744995,713.696655 1250.653320,713.696655 
	C1250.653320,689.758911 1250.653320,666.182678 1250.653320,641.979919 
	C1260.210449,641.979919 1269.269165,641.979919 1278.406006,641.979919 
	C1278.406006,634.786377 1278.406006,628.232666 1278.406006,621.482117 
	C1250.786987,621.482117 1223.535645,621.482117 1195.969238,621.482117 
	C1195.969238,628.402039 1195.969238,635.073486 1195.969238,642.196411 
	C1205.482300,642.196411 1214.578613,642.196411 1224.162720,642.196411 
	C1224.162720,658.264465 1224.162720,673.882263 1224.162842,690.500000 
M824.750305,788.516907 
	C824.750305,811.932739 824.750305,835.348633 824.750305,858.762512 
	C839.541626,858.762512 853.710083,859.283630 867.820557,858.603088 
	C879.811157,858.024719 890.692871,853.596619 898.474792,843.945068 
	C909.416382,830.374695 910.891113,815.011658 904.317200,799.323486 
	C897.640137,783.388916 884.083130,776.244080 867.556702,775.207764 
	C853.948120,774.354370 840.254150,774.857178 826.597778,774.793274 
	C826.006165,774.790527 825.413025,775.131592 824.750366,775.333984 
	C824.750366,779.534485 824.750366,783.530029 824.750305,788.516907 
M1309.882324,671.500000 
	C1309.882324,685.569336 1309.882324,699.638672 1309.882324,713.675903 
	C1319.005981,713.675903 1327.388916,713.675903 1336.350708,713.675903 
	C1336.350708,689.611328 1336.350708,665.924377 1336.350708,641.822510 
	C1345.862183,641.822510 1354.787354,641.822510 1363.822021,641.822510 
	C1363.822021,634.839661 1363.822021,628.290100 1363.822021,621.667114 
	C1336.143921,621.667114 1308.807739,621.667114 1281.607910,621.667114 
	C1281.607910,628.658875 1281.607910,635.214172 1281.607910,642.220459 
	C1291.113647,642.220459 1300.201904,642.220459 1309.882324,642.220459 
	C1309.882324,651.952515 1309.882324,661.226257 1309.882324,671.500000 
M618.076111,782.398376 
	C611.890747,777.775452 604.921021,775.240723 597.222046,775.074097 
	C586.401917,774.839905 575.576721,774.840576 564.753601,774.749939 
	C562.326050,774.729614 559.898254,774.746887 557.542480,774.746887 
	C557.542480,803.199646 557.542480,830.945923 557.542480,858.733154 
	C562.778259,858.733154 567.686523,858.733154 573.161377,858.733154 
	C573.161377,850.551331 573.161377,842.661682 573.161377,834.542847 
	C580.054077,834.542847 586.385681,834.357300 592.692688,834.668762 
	C594.339783,834.750122 596.411194,836.002930 597.430176,837.361084 
	C602.022278,843.481506 606.248352,849.875122 610.750061,856.065857 
	C611.639771,857.289368 613.108521,858.801392 614.402588,858.894409 
	C619.126160,859.233521 623.888733,859.028442 629.431152,859.028442 
	C622.865784,849.483093 616.783508,840.640137 610.704590,831.802002 
	C630.764099,818.295227 634.068848,796.979248 618.076111,782.398376 
M1310.784668,859.010376 
	C1315.372070,859.010376 1319.959473,859.010376 1324.965942,859.010376 
	C1324.965942,850.544678 1324.965942,842.780945 1324.965942,834.544861 
	C1332.013672,834.544861 1338.640381,834.406006 1345.251831,834.662537 
	C1346.568115,834.713623 1348.187134,836.011963 1349.049805,837.187683 
	C1353.577881,843.359802 1357.854858,849.715637 1362.350708,855.912109 
	C1363.253784,857.156677 1364.669800,858.776428 1365.947388,858.868958 
	C1370.771606,859.218140 1375.636108,859.009216 1381.160156,859.009216 
	C1374.528076,849.346436 1368.470337,840.520691 1363.292358,832.976501 
	C1368.285522,827.549194 1373.845581,823.520142 1376.652100,818.072449 
	C1384.661499,802.525085 1379.050659,778.888428 1353.233887,775.739502 
	C1338.829102,773.982605 1324.034302,775.423828 1309.257324,775.423828 
	C1309.204468,776.010742 1309.067261,776.826111 1309.066895,777.641541 
	C1309.054932,803.464172 1309.044922,829.286804 1309.089111,855.109375 
	C1309.091187,856.353821 1309.586670,857.597473 1310.784668,859.010376 
M178.642181,721.056946 
	C176.880814,721.056946 175.119446,721.056946 173.439331,721.056946 
	C173.439331,731.119385 173.439331,740.496277 173.439331,749.797913 
	C213.429123,749.797913 253.011292,749.797913 292.755188,749.797913 
	C292.755188,740.173157 292.755188,730.801147 292.755188,721.057373 
	C254.820786,721.057373 217.214874,721.057373 178.642181,721.056946 
M1000.122375,817.500000 
	C1000.122375,831.254822 1000.122375,845.009705 1000.122375,858.795288 
	C1021.584290,858.795288 1042.341675,858.795288 1063.334595,858.795288 
	C1063.334595,854.475220 1063.334595,850.400024 1063.334595,845.843018 
	C1047.485352,845.843018 1031.910034,845.843018 1016.216431,845.843018 
	C1016.216431,837.963928 1016.216431,830.570374 1016.216431,822.677490 
	C1029.746826,822.677490 1042.980957,822.677490 1056.430420,822.677490 
	C1056.430420,818.258118 1056.430420,814.342834 1056.430420,809.781372 
	C1042.830933,809.781372 1029.466797,809.781372 1016.191162,809.781372 
	C1016.191162,802.202759 1016.191162,795.274597 1016.191162,787.833496 
	C1031.521973,787.833496 1046.581421,787.833496 1061.701904,787.833496 
	C1061.701904,783.239441 1061.701904,779.169312 1061.701904,775.149414 
	C1041.053589,775.149414 1020.692139,775.149414 1000.122437,775.149414 
	C1000.122437,789.202148 1000.122437,802.851074 1000.122375,817.500000 
M1283.314331,774.754395 
	C1265.014893,774.754395 1246.715454,774.754395 1228.420898,774.754395 
	C1228.420898,803.076660 1228.420898,830.952942 1228.420898,858.749817 
	C1249.552002,858.749817 1270.302490,858.749817 1291.158203,858.749817 
	C1291.158203,854.379517 1291.158203,850.299561 1291.158203,845.732178 
	C1275.274170,845.732178 1259.692261,845.732178 1244.182495,845.732178 
	C1244.182495,837.835938 1244.182495,830.436523 1244.182495,822.537048 
	C1257.769287,822.537048 1270.990845,822.537048 1284.239990,822.537048 
	C1284.239990,818.088257 1284.239990,814.158936 1284.239990,809.769104 
	C1270.694702,809.769104 1257.437012,809.769104 1244.199463,809.769104 
	C1244.199463,802.255554 1244.199463,795.212158 1244.199463,787.676392 
	C1259.645142,787.676392 1274.708496,787.676392 1289.800293,787.676392 
	C1289.800293,783.196289 1289.800293,779.222717 1289.800293,774.754089 
	C1287.844482,774.754089 1286.049194,774.754089 1283.314331,774.754395 
M647.876831,774.804626 
	C647.134827,776.134155 645.752197,777.460571 645.745667,778.793701 
	C645.620117,804.456726 645.652466,830.120605 645.671753,855.784302 
	C645.672485,856.759705 645.868835,857.734985 645.969910,858.671875 
	C667.044189,858.671875 687.945801,858.671875 708.706665,858.671875 
	C708.706665,854.238220 708.706665,850.170898 708.706665,845.627075 
	C692.767456,845.627075 677.199585,845.627075 661.533081,845.627075 
	C661.533081,837.866516 661.533081,830.596497 661.533081,822.768677 
	C675.009216,822.768677 688.255493,822.768677 701.534058,822.768677 
	C701.534058,818.165222 701.534058,814.128540 701.534058,809.745728 
	C688.011719,809.745728 674.882629,809.745728 661.654053,809.745728 
	C661.654053,802.343994 661.654053,795.305298 661.654053,787.757690 
	C677.076904,787.757690 692.141785,787.757690 707.156738,787.757690 
	C707.156738,783.185242 707.156738,779.136230 707.156738,774.795471 
	C687.443237,774.795471 668.127075,774.795471 647.876831,774.804626 
M930.386902,778.884583 
	C922.318237,783.898071 918.301270,791.160828 918.972412,800.635925 
	C919.651855,810.228760 925.502869,816.035217 934.127319,819.140808 
	C939.587585,821.106934 945.293091,822.381653 950.845398,824.105408 
	C955.431763,825.529358 960.264465,826.581299 964.436401,828.824158 
	C971.375244,832.554626 971.010437,841.136230 963.970581,844.666748 
	C961.503052,845.904175 958.630188,846.613098 955.869019,846.936890 
	C943.813049,848.350891 932.843933,845.128845 922.526672,838.159546 
	C920.667603,842.340393 918.944702,846.215210 917.257874,850.008667 
	C925.355713,856.747375 940.337158,861.438660 952.710510,860.061646 
	C959.682129,859.285706 966.911987,857.725342 973.211243,854.778015 
	C981.529053,850.886169 985.393066,843.203125 984.923828,833.854248 
	C984.475830,824.928101 979.614807,818.990845 971.472351,815.792664 
	C966.850708,813.977356 962.063904,812.565796 957.309265,811.110229 
	C951.915588,809.459167 946.380554,808.222656 941.086243,806.309937 
	C937.334045,804.954346 934.531128,802.271240 934.639038,797.743591 
	C934.747131,793.204041 937.209717,789.857788 941.275818,788.724426 
	C945.979980,787.413208 951.122864,786.250244 955.859558,786.819092 
	C962.817688,787.654785 969.584534,790.082947 976.898560,791.951660 
	C978.159119,788.885071 979.716187,785.097046 981.519104,780.710876 
	C964.693054,772.567932 948.128174,770.449402 930.386902,778.884583 
M1442.005981,838.945618 
	C1439.849121,841.086670 1438.034790,844.326172 1435.460693,845.128906 
	C1430.809937,846.579346 1425.499878,847.743164 1420.834595,846.923401 
	C1412.174194,845.401855 1403.779663,842.367554 1394.775391,839.822083 
	C1393.610718,842.462646 1391.903320,846.333069 1390.189575,850.218262 
	C1397.622314,856.001526 1405.899048,858.372620 1414.533325,859.561646 
	C1425.435181,861.063049 1436.206665,860.572632 1446.083008,855.071228 
	C1454.181519,850.560059 1458.322510,843.422058 1457.968140,834.097229 
	C1457.629639,825.184570 1452.848267,819.126221 1444.697266,815.888062 
	C1439.928223,813.993408 1434.956299,812.598938 1430.048218,811.067505 
	C1424.503784,809.337524 1418.836548,807.954590 1413.400024,805.942017 
	C1409.972168,804.673096 1407.694092,801.989746 1407.700439,797.920776 
	C1407.707031,793.792358 1409.755859,790.886475 1413.253418,789.144348 
	C1415.443604,788.053467 1417.906982,787.309875 1420.329834,786.922424 
	C1430.600220,785.279785 1440.056885,788.112671 1449.488892,793.003052 
	C1450.673462,790.182556 1451.536987,787.488831 1452.885254,785.064575 
	C1454.945801,781.359253 1453.437134,779.553406 1449.950195,778.491516 
	C1445.346558,777.089355 1440.823608,775.189453 1436.115845,774.409241 
	C1425.631348,772.671692 1415.189575,773.019958 1405.413452,777.851990 
	C1396.770630,782.123840 1391.933594,789.087402 1391.963867,798.896912 
	C1391.993408,808.455078 1396.843140,814.928711 1405.594604,818.411255 
	C1409.910156,820.128601 1414.375977,821.492004 1418.827759,822.837219 
	C1424.236450,824.471436 1429.801147,825.638794 1435.113281,827.528381 
	C1439.855469,829.215210 1443.059692,832.453186 1442.005981,838.945618 
M139.189514,652.692017 
	C127.527222,663.601013 117.415359,675.469299 112.718979,691.271362 
	C108.217255,706.418579 105.941414,721.669006 107.515129,738.176819 
	C125.055672,716.876221 130.339127,714.297241 156.430298,713.860291 
	C157.365143,688.086243 158.300079,662.309692 159.264236,635.727722 
	C152.574585,641.355835 146.133194,646.775085 139.189514,652.692017 
M350.228271,682.196106 
	C340.641876,662.088684 323.656830,649.089722 306.600433,635.842773 
	C307.968750,662.220581 309.305908,687.997192 310.649567,713.899902 
	C331.742767,709.929077 347.410309,718.909302 360.375977,736.496460 
	C361.253265,716.933350 357.727417,699.572815 350.228271,682.196106 
M1106.500000,774.795715 
	C1094.702271,774.795715 1082.904541,774.795715 1070.884766,774.795715 
	C1070.884766,779.307922 1070.884766,783.413086 1070.884766,787.981750 
	C1080.173950,787.981750 1089.251465,787.981750 1098.837402,787.981750 
	C1098.837402,811.814026 1098.837402,835.190369 1098.837402,858.763306 
	C1104.253906,858.763306 1109.147583,858.763306 1114.563232,858.763306 
	C1114.563232,835.120728 1114.563232,811.739990 1114.563232,787.828064 
	C1124.134888,787.828064 1133.194458,787.828064 1142.276611,787.828064 
	C1142.276611,783.225403 1142.276611,779.169495 1142.276611,774.795959 
	C1130.444702,774.795959 1118.972290,774.795959 1106.500000,774.795715 
M501.896942,803.503784 
	C501.896942,821.909302 501.896942,840.314819 501.896942,858.656372 
	C507.456818,858.656372 512.331177,858.656372 517.548340,858.656372 
	C517.548340,835.026001 517.548340,811.767822 517.548340,787.844971 
	C527.084351,787.844971 536.289001,787.844971 545.517090,787.844971 
	C545.517090,783.238892 545.517090,779.303589 545.517090,775.084717 
	C521.588989,775.084717 497.902496,775.084717 474.113770,775.084717 
	C474.113770,779.443176 474.113770,783.499817 474.113770,788.079346 
	C483.466675,788.079346 492.525421,788.079346 501.896912,788.079346 
	C501.896912,793.237000 501.896912,797.871338 501.896942,803.503784 
M1188.244385,794.619690 
	C1188.244385,792.511902 1188.244385,790.404114 1188.244385,787.839050 
	C1197.936646,787.839050 1207.013794,787.839050 1216.200806,787.839050 
	C1216.200806,783.295044 1216.200806,779.220886 1216.200806,774.979858 
	C1192.279297,774.979858 1168.674683,774.979858 1144.920166,774.979858 
	C1144.920166,779.365417 1144.920166,783.549988 1144.920166,788.060974 
	C1154.279419,788.060974 1163.228271,788.060974 1172.686035,788.060974 
	C1172.686035,811.771973 1172.686035,835.156677 1172.686035,858.737061 
	C1178.098389,858.737061 1182.989502,858.737061 1188.244263,858.737061 
	C1188.244263,837.494507 1188.244263,816.544556 1188.244385,794.619690 
M223.973221,796.348206 
	C227.252640,784.141357 226.028473,771.915771 224.158310,759.680176 
	C223.732468,756.894043 222.329224,755.750854 219.420929,755.852783 
	C214.094864,756.039429 208.744568,755.700256 203.432877,756.033936 
	C201.755142,756.139282 199.546005,757.279114 198.639297,758.647339 
	C192.042725,768.601807 189.624954,779.437683 193.719055,790.953735 
	C197.700745,802.153442 202.796204,813.033630 200.779617,826.315247 
	C212.301163,818.668152 219.451065,809.018311 223.973221,796.348206 
M1267.822144,565.279236 
	C1267.838745,558.720154 1264.963501,553.840881 1259.041748,550.862671 
	C1269.783203,538.895081 1263.497559,527.070190 1253.140869,525.753906 
	C1242.760132,524.434509 1232.080811,525.463989 1221.542480,525.463989 
	C1221.542480,543.324646 1221.542480,560.978577 1221.542480,578.819275 
	C1231.656738,578.819275 1241.304688,579.163940 1250.916504,578.722778 
	C1260.603149,578.278076 1265.591919,574.126709 1267.822144,565.279236 
M1360.511719,576.120422 
	C1370.569214,570.581299 1375.272095,561.747681 1374.799438,550.607422 
	C1374.325073,539.431519 1368.747925,531.024597 1358.297363,526.435913 
	C1346.732300,521.358032 1331.741089,524.241455 1324.107300,532.760315 
	C1315.913574,541.903870 1314.491455,554.702820 1320.445801,565.716919 
	C1327.331299,578.454163 1344.611084,583.167419 1360.511719,576.120422 
M597.865601,540.852966 
	C593.507141,531.618408 586.388367,525.886841 576.235474,524.393250 
	C564.054138,522.601196 553.541260,525.997681 546.596130,536.469360 
	C540.177368,546.147339 540.106079,556.617432 546.241516,566.609680 
	C553.754517,578.845581 570.401184,583.194885 584.141418,576.867981 
	C597.475464,570.728149 602.926208,556.988708 597.865601,540.852966 
M782.254639,578.945740 
	C783.319702,578.836731 784.384827,578.727722 786.029663,578.559387 
	C781.733887,572.358398 777.811646,566.696533 773.801758,560.908203 
	C774.759338,560.292542 775.294861,559.932495 775.845215,559.596619 
	C783.614746,554.855652 786.564087,548.656616 784.822754,539.254700 
	C783.429749,531.733459 778.209717,526.720886 771.037903,525.942566 
	C761.622925,524.920837 752.013367,525.691895 742.418945,525.691895 
	C742.418945,543.288025 742.418945,560.955444 742.418945,578.963379 
	C745.120911,578.836548 747.343628,578.732239 749.862244,578.614014 
	C749.862244,574.524048 750.058655,571.031799 749.807739,567.571960 
	C749.549133,564.005432 750.686035,562.996765 754.440796,562.521057 
	C763.294983,561.399292 769.499634,564.111694 773.153503,572.402283 
	C773.809021,573.889526 774.811646,575.436890 776.080627,576.386292 
	C777.638794,577.552063 779.645020,578.118835 782.254639,578.945740 
M479.990875,572.384827 
	C479.990875,574.458618 479.990875,576.532410 479.990875,578.478149 
	C483.148285,578.478149 485.368195,578.478149 488.089600,578.478149 
	C488.089600,573.127686 488.089600,568.204041 488.089600,563.398071 
	C501.418915,560.814697 504.274170,561.947815 511.188629,572.252014 
	C511.744537,573.080505 512.459229,573.830078 512.872681,574.721802 
	C515.198608,579.738220 519.187988,579.377686 524.010376,578.446228 
	C519.763306,572.301514 515.839172,566.624023 511.791840,560.768250 
	C519.835876,556.636047 524.157532,550.716492 523.290955,541.798401 
	C522.418030,532.816467 517.132141,526.912109 508.675110,525.848083 
	C499.424530,524.684265 489.914368,525.583374 479.990265,525.583374 
	C479.990265,540.870483 479.990265,556.140259 479.990875,572.384827 
M264.055420,765.451660 
	C264.055420,762.369446 264.055420,759.287170 264.055420,755.910828 
	C254.963608,755.910828 246.660187,755.811218 238.364899,756.026123 
	C237.217682,756.055847 235.201736,757.576782 235.134033,758.518494 
	C234.720490,764.270325 233.159866,770.621826 234.971848,775.708191 
	C238.655014,786.047363 244.089172,795.787048 249.154648,805.591431 
	C250.330612,807.867554 252.921890,809.412354 255.779617,812.183594 
	C255.779617,808.797974 255.537308,806.843445 255.823044,804.969299 
	C256.865662,798.130615 257.865845,791.272339 259.301910,784.510620 
	C260.596313,778.415833 262.440796,772.437805 264.055420,765.451660 
M814.680481,546.148865 
	C809.885986,556.869995 805.091492,567.591187 800.273865,578.363953 
	C805.738647,580.064880 809.139648,578.658936 810.624023,573.435608 
	C810.939514,572.325562 811.652954,571.328674 811.968018,570.218628 
	C812.923950,566.850403 814.891235,565.465210 818.548767,565.693726 
	C823.694519,566.015198 828.943237,566.301453 834.024597,565.646484 
	C840.814636,564.771301 844.807251,567.178345 846.346008,573.736145 
	C847.605042,579.102173 851.007202,579.961304 855.911621,578.340576 
	C855.768921,577.376648 855.837524,576.331238 855.456421,575.489441 
	C848.250854,559.571899 841.072205,543.640564 833.610535,527.843201 
	C832.929199,526.400696 830.344299,525.051270 828.679871,525.093567 
	C826.814697,525.140991 824.134277,526.353333 823.302002,527.875427 
	C820.197083,533.553284 817.704285,539.565857 814.680481,546.148865 
M700.416321,565.773560 
	C706.786621,564.561279 710.420776,566.925598 712.539246,573.326294 
	C714.710876,579.887756 715.648193,579.874756 722.438599,578.190735 
	C722.416748,577.869019 722.484497,577.506958 722.360291,577.231384 
	C714.847839,560.562561 707.415588,543.855591 699.619812,527.320007 
	C698.959045,525.918274 695.814636,524.973572 693.903687,525.092773 
	C692.268860,525.194824 690.031555,526.783508 689.294495,528.310242 
	C684.741211,537.741272 680.528198,547.336914 676.219971,556.885925 
	C673.036560,563.942078 669.880371,571.010498 666.654480,578.201904 
	C672.030640,579.912354 675.461426,579.143799 676.674316,573.734253 
	C676.922546,572.627075 677.784363,571.669067 678.121460,570.568176 
	C679.246887,566.893127 681.387085,565.308044 685.460938,565.675354 
	C690.084839,566.092346 694.775208,565.772217 700.416321,565.773560 
M298.047943,808.015808 
	C315.770233,806.594116 328.608429,813.785339 336.072479,829.139832 
	C342.262177,829.719543 348.093567,829.835266 353.755676,830.873779 
	C373.595062,834.512512 384.276337,845.928101 387.249573,865.838928 
	C387.460449,867.251404 388.826111,869.292053 390.046387,869.631042 
	C404.522736,873.652832 410.111481,883.943481 408.432220,899.457092 
	C407.487305,908.186279 405.284027,917.080200 408.046234,924.456421 
	C408.834290,917.574341 409.500824,909.380188 410.757324,901.277405 
	C413.322540,884.735474 409.862946,872.964905 393.580231,866.387024 
	C392.290314,865.865906 391.213043,863.565430 390.953491,861.945068 
	C388.885010,849.030396 382.723755,838.901062 371.326874,832.200684 
	C363.396362,827.538330 354.634247,825.376160 345.605774,825.266052 
	C340.862915,825.208191 338.365784,823.651062 335.683228,819.888672 
	C325.135010,805.094299 306.907166,800.694946 287.828033,807.559570 
	C285.117218,798.676697 282.399384,789.770996 279.681580,780.865295 
	C279.595245,780.927856 279.508942,780.990417 279.422607,781.052979 
	C281.343140,791.374878 283.263672,801.696838 285.166321,811.922607 
	C288.720276,810.787842 292.948212,809.437927 298.047943,808.015808 
M1194.834961,547.492371 
	C1194.835083,541.834656 1194.838989,536.176880 1194.834106,530.519165 
	C1194.828369,523.922852 1194.404053,523.599731 1187.238525,525.027466 
	C1187.171021,526.558289 1187.041992,528.177612 1187.037842,529.797119 
	C1187.015747,538.450073 1187.238892,547.110168 1186.949951,555.753540 
	C1186.748047,561.792114 1186.002808,568.138367 1179.566162,571.008240 
	C1168.629150,575.884460 1156.700928,571.200195 1156.836670,556.876099 
	C1156.920166,548.057556 1156.854980,539.237488 1156.846191,530.418152 
	C1156.839844,523.941589 1156.289917,523.540588 1149.224487,525.051575 
	C1149.224487,537.416199 1148.692505,549.875977 1149.408081,562.263733 
	C1149.900635,570.792419 1156.864502,577.267395 1165.031006,578.919678 
	C1176.455566,581.231140 1185.806641,578.149597 1190.834717,570.663452 
	C1195.435425,563.813477 1194.844604,556.119629 1194.834961,547.492371 
M175.264465,808.362732 
	C176.446381,806.283936 177.628296,804.205078 178.810211,802.126282 
	C178.270950,801.864380 177.731705,801.602478 177.192444,801.340637 
	C176.565109,802.884277 175.937759,804.427979 175.246552,806.128845 
	C159.283524,805.821594 144.476730,808.161926 136.467987,824.466248 
	C134.350052,824.094727 132.540268,823.823120 130.749985,823.456421 
	C96.614807,816.463684 66.179298,846.392212 70.662971,872.973572 
	C72.033531,881.098938 68.581337,884.037903 61.756363,886.837219 
	C51.460255,891.060242 42.395123,897.338501 38.549751,908.724854 
	C38.214600,909.717224 38.328438,910.861267 38.262093,911.613281 
	C42.341824,906.689270 45.560959,901.068665 50.320374,897.505310 
	C56.080433,893.192688 62.931767,890.060852 69.717598,887.492737 
	C74.219810,885.788879 75.275002,883.798279 74.872589,879.221191 
	C72.327583,850.274048 91.726135,827.952759 120.266685,827.127869 
	C126.642250,826.943604 133.062286,828.298218 139.701157,828.968506 
	C142.330673,817.692139 150.762024,812.249939 161.725235,809.937256 
	C165.913757,809.053772 170.251190,808.876343 175.264465,808.362732 
M1026.490356,565.872009 
	C1036.867798,583.919006 1063.873291,582.765625 1071.652588,571.101929 
	C1068.098877,566.256226 1068.137817,566.318726 1063.260132,569.359863 
	C1055.817505,574.000122 1048.191162,574.096619 1040.691284,569.619995 
	C1032.791992,564.904907 1029.955444,557.519348 1031.110596,548.737122 
	C1032.252686,540.055359 1037.164307,534.211365 1045.778687,531.730591 
	C1053.831909,529.411438 1060.827515,531.524658 1066.446289,536.435242 
	C1068.504028,534.897888 1070.276367,533.573853 1072.049561,532.249023 
	C1061.387329,522.116333 1045.634033,521.183899 1033.948486,529.503967 
	C1022.952454,537.333069 1019.863464,551.453247 1026.490356,565.872009 
M890.446228,532.599915 
	C899.209229,529.025146 907.043152,530.836304 913.611450,536.491516 
	C915.572998,534.961426 917.320190,533.598511 919.036255,532.259888 
	C908.448792,520.893860 888.327637,521.357971 877.260010,532.735168 
	C866.401855,543.897095 867.784302,563.490845 880.365051,573.617188 
	C892.220825,583.159912 912.801941,580.764282 918.815857,570.934631 
	C916.872925,568.122192 915.267212,565.711914 911.097351,568.706055 
	C901.087402,575.893738 886.988892,573.198486 881.023682,563.114746 
	C874.751038,552.511230 878.365784,537.721741 890.446228,532.599915 
M1417.504883,550.121155 
	C1413.435181,550.121155 1409.365356,550.121155 1405.294800,550.121155 
	C1405.294800,543.609680 1405.294800,538.016846 1405.294800,531.759705 
	C1413.844116,531.759705 1422.109619,531.777283 1430.375122,531.753662 
	C1436.040039,531.737427 1436.541992,530.982605 1434.840576,525.201172 
	C1422.447388,525.201172 1410.041992,525.201172 1397.451294,525.201172 
	C1397.451294,543.197876 1397.451294,560.874268 1397.451294,578.532349 
	C1400.116943,578.532349 1402.345337,578.532349 1405.127441,578.532349 
	C1405.127441,571.253296 1405.127441,564.352783 1405.127441,556.923828 
	C1414.253540,556.923828 1422.823242,556.923828 1431.632324,556.923828 
	C1431.632324,554.483215 1431.632324,552.590088 1431.632324,550.120789 
	C1427.064209,550.120789 1422.781128,550.120789 1417.504883,550.121155 
M639.929443,535.678467 
	C639.527405,532.578186 640.992981,531.607300 643.959045,531.720520 
	C648.536499,531.895264 653.125549,531.766541 657.626831,531.766541 
	C657.626831,529.032166 657.626831,527.147217 657.626831,525.336121 
	C642.679016,525.336121 628.161804,525.336121 613.788757,525.336121 
	C612.280273,530.484436 614.133545,532.150574 618.858398,531.822327 
	C623.082764,531.528687 627.343628,531.760437 632.261414,531.760437 
	C632.261414,547.937378 632.261414,563.283875 632.261414,578.968262 
	C635.195862,578.838684 637.419617,578.740479 639.926453,578.629761 
	C639.926453,564.222229 639.926453,550.431946 639.929443,535.678467 
M958.933411,550.500488 
	C958.933411,544.408569 958.933411,538.316711 958.933411,531.705383 
	C965.292969,531.705383 970.878662,531.705383 976.756714,531.705383 
	C976.756714,529.275208 976.756714,527.388489 976.756714,525.202271 
	C961.934937,525.202271 947.406982,525.202271 932.939270,525.202271 
	C931.783020,531.370422 932.029114,531.722107 937.481995,531.756348 
	C941.882385,531.784058 946.283081,531.761963 951.171143,531.761963 
	C951.171143,547.907776 951.171143,563.140442 951.171143,578.612610 
	C953.906860,578.612610 956.131653,578.612610 958.932983,578.612610 
	C958.932983,569.376221 958.932983,560.438293 958.933411,550.500488 
M1111.500977,578.915955 
	C1117.919189,578.915955 1124.337402,578.915955 1131.094727,578.915955 
	C1130.969971,576.184692 1130.883911,574.301086 1130.774536,571.907227 
	C1120.966919,571.907227 1111.728638,571.907227 1101.854492,571.907227 
	C1101.854492,556.002258 1101.854492,540.627808 1101.854492,525.264832 
	C1098.966431,525.264832 1096.735840,525.264832 1094.370605,525.264832 
	C1094.370605,543.209839 1094.370605,560.766174 1094.370605,578.916870 
	C1099.948120,578.916870 1105.224976,578.916870 1111.500977,578.915955 
z"/>
<path fill="#1D4599" opacity="1.000000" stroke="none" 
	d="
M206.999969,714.865295 
	C193.352203,714.865295 180.204437,714.865295 166.611191,714.865295 
	C166.393723,712.813293 166.056122,711.039917 166.039413,709.263489 
	C165.631577,665.924255 167.800552,622.763794 175.965927,580.100464 
	C182.758682,544.608887 192.740051,510.141449 212.161377,479.220520 
	C217.677689,470.437927 224.723068,462.615784 231.290314,454.062683 
	C243.097900,463.272369 250.830124,473.957245 257.438293,485.547211 
	C273.454803,513.638367 282.459290,544.211121 288.789795,575.650574 
	C295.500519,608.978394 299.200195,642.681763 299.962646,676.675476 
	C300.242065,689.133179 300.007690,701.602417 300.007690,714.865295 
	C269.667206,714.865295 238.583588,714.865295 206.999969,714.865295 
M202.231979,668.377869 
	C210.238266,662.715759 218.416611,657.277100 226.179871,651.299377 
	C230.198135,648.205261 233.222153,647.604370 237.352844,651.113953 
	C242.022781,655.081665 247.300339,658.339844 252.354462,661.847717 
	C255.708542,664.175720 259.134338,666.400452 262.528015,668.671387 
	C261.131195,660.301086 258.878418,652.554077 256.559387,644.826965 
	C252.734543,632.082520 252.744308,632.124207 263.437592,623.917236 
	C269.920197,618.942017 276.300781,613.833862 282.727203,608.785400 
	C282.585876,608.330933 282.444550,607.876404 282.303223,607.421936 
	C271.353210,607.421936 260.399445,607.259338 249.455170,607.509705 
	C245.597275,607.598022 243.503296,606.447205 242.970886,602.575806 
	C242.816071,601.450134 242.264511,600.376953 241.879105,599.285278 
	C238.557587,589.877563 235.232483,580.471069 231.611359,570.223511 
	C227.512436,582.182068 223.871674,593.172607 219.874985,604.032104 
	C219.330063,605.512756 217.056290,607.236145 215.500015,607.320801 
	C206.362289,607.817322 197.199692,607.850098 188.046066,608.064697 
	C185.803253,608.117188 183.562668,608.265076 179.821945,608.438660 
	C191.055344,617.029541 201.027145,624.655579 210.857376,632.173401 
	C207.450775,644.307617 204.144745,656.083679 200.373734,668.116150 
	C200.350006,668.528748 200.326279,668.941345 200.302536,669.353943 
	C200.739700,669.122803 201.176865,668.891663 202.231979,668.377869 
M263.328735,669.335815 
	C263.328735,669.335815 263.558167,669.461853 263.558167,669.461853 
	C263.558167,669.461853 263.505341,669.136353 263.328735,669.335815 
z"/>
<path fill="#FDB140" opacity="1.000000" stroke="none" 
	d="
M480.177155,654.000000 
	C480.177246,643.023071 480.177246,632.546082 480.177246,621.309448 
	C487.206451,621.309448 493.972351,621.072754 500.695312,621.504639 
	C502.077820,621.593445 503.562775,624.018982 504.554718,625.640259 
	C513.411743,640.116333 522.164001,654.656494 530.961792,669.168823 
	C531.973145,670.837219 533.074280,672.451233 534.440857,674.565491 
	C544.187256,658.122986 553.713928,642.312500 562.924133,626.319824 
	C565.084961,622.567688 567.356567,620.709656 571.890076,621.128357 
	C576.972107,621.597778 582.130920,621.236206 587.585815,621.236206 
	C587.585815,652.275024 587.585815,682.812012 587.585815,713.706909 
	C579.759766,713.706909 572.016907,713.706909 563.670288,713.706909 
	C563.670288,698.417969 563.670288,683.039551 563.670288,667.661072 
	C563.306091,667.537537 562.941956,667.414001 562.577759,667.290466 
	C561.434204,668.956055 560.194763,670.564575 559.163208,672.296875 
	C553.544373,681.732483 547.973511,691.196716 542.392456,700.654846 
	C538.682495,706.942139 529.386902,707.035828 525.625916,700.867188 
	C519.058533,690.095642 512.435730,679.357910 504.904938,668.717285 
	C504.904938,683.646057 504.904938,698.574890 504.904938,713.774109 
	C496.445343,713.774109 488.687592,713.774109 480.177063,713.774109 
	C480.177063,693.994263 480.177063,674.247131 480.177155,654.000000 
z"/>
<path fill="#FDB140" opacity="1.000000" stroke="none" 
	d="
M915.234985,686.000000 
	C915.234985,664.354248 915.234985,643.208435 915.234985,622.324646 
	C915.831055,621.858765 916.091675,621.477783 916.343445,621.483582 
	C934.619873,621.903259 953.010498,621.255981 971.134460,623.153381 
	C985.302429,624.636597 995.157227,633.747986 997.974121,648.380371 
	C1000.821899,663.173279 996.400757,675.354248 983.221130,683.663879 
	C982.674683,684.008362 982.209351,684.481384 981.222839,685.291565 
	C987.503723,694.634155 993.749146,703.923889 1000.552368,714.043396 
	C991.196960,714.043396 982.786255,714.162781 974.386475,713.913757 
	C973.136841,713.876709 971.643433,712.316956 970.767761,711.098694 
	C966.977844,705.826538 963.088257,700.588867 959.798035,695.006775 
	C957.275513,690.727295 954.169373,688.849548 949.249939,689.568970 
	C947.010803,689.896423 944.684082,689.624634 941.857788,689.624634 
	C941.857788,697.952576 941.857788,705.700195 941.857788,713.747131 
	C932.878967,713.747131 924.454041,713.747131 915.234985,713.747131 
	C915.234985,704.683655 915.234985,695.591858 915.234985,686.000000 
M968.676270,665.165283 
	C975.490845,657.062561 973.228088,645.749512 963.644836,643.440735 
	C956.735352,641.776062 949.338806,642.133301 942.130127,641.586548 
	C942.130127,651.391113 942.130127,659.967041 942.130127,669.181396 
	C951.070312,668.018250 960.092285,671.372620 968.676270,665.165283 
z"/>
<path fill="#FDB03F" opacity="1.000000" stroke="none" 
	d="
M794.762329,696.820801 
	C795.936218,703.071106 792.988831,706.047852 788.012878,708.318970 
	C766.814880,717.994263 745.583801,720.395020 725.169006,707.101013 
	C707.764954,695.767517 702.493347,678.440063 705.489197,658.708801 
	C708.346313,639.891602 722.885742,625.142212 741.139954,621.193420 
	C758.395447,617.460632 774.879761,618.785339 789.625305,629.579346 
	C792.123535,631.408142 794.217041,633.789856 796.801392,636.199463 
	C791.078979,641.513855 785.778992,646.436035 780.163330,651.651245 
	C773.166199,644.136353 764.810486,640.824158 754.911194,641.520447 
	C740.251953,642.551636 730.874268,652.963989 730.986206,668.159058 
	C731.094299,682.839355 740.824402,693.177246 755.285217,693.964844 
	C756.115417,694.010010 756.949890,693.983521 757.782349,693.979797 
	C770.188477,693.923950 771.291992,692.772156 771.393677,680.683533 
	C771.435181,675.759277 770.097473,669.279480 772.650085,666.390381 
	C774.840332,663.911438 781.679016,665.508728 786.463928,665.365784 
	C788.942505,665.291687 791.425171,665.352722 794.762146,665.352722 
	C794.762146,675.883240 794.762146,686.115173 794.762329,696.820801 
z"/>
<path fill="#FDB03F" opacity="1.000000" stroke="none" 
	d="
M1095.783936,664.597778 
	C1090.347778,680.865845 1077.247314,689.579346 1058.178345,689.872009 
	C1052.357910,689.961304 1046.535034,689.885803 1040.099854,689.885803 
	C1040.099854,697.830017 1040.099854,705.558472 1040.099854,713.664673 
	C1030.962280,713.664673 1022.433167,713.664673 1013.336548,713.664673 
	C1013.336548,711.881592 1013.336670,710.258179 1013.336548,708.634705 
	C1013.335144,681.304993 1013.401062,653.974915 1013.256836,626.645996 
	C1013.236023,622.717712 1014.009644,621.041382 1018.415955,621.138184 
	C1031.407959,621.423584 1044.427124,620.854065 1057.401367,621.412964 
	C1063.780151,621.687744 1070.448608,622.792419 1076.350952,625.127075 
	C1092.615967,631.560547 1099.083374,645.212524 1095.783936,664.597778 
M1043.677979,642.016663 
	C1042.411987,642.667297 1040.065918,643.284363 1040.044434,643.973633 
	C1039.789185,652.187683 1039.879883,660.412476 1039.879883,669.376038 
	C1047.515625,668.941406 1054.526245,669.174194 1061.283325,667.976257 
	C1067.756714,666.828613 1071.002563,661.554016 1070.758057,655.173950 
	C1070.511230,648.740540 1066.961548,644.058777 1060.447876,642.981934 
	C1055.265747,642.125244 1049.913208,642.300171 1043.677979,642.016663 
z"/>
<path fill="#FDB03E" opacity="1.000000" stroke="none" 
	d="
M615.409790,668.353638 
	C621.896179,653.710449 628.296143,639.443604 634.485718,625.086060 
	C635.718750,622.225952 637.242188,621.038269 640.424072,621.166077 
	C646.578125,621.413330 652.756104,621.081482 658.908142,621.352783 
	C660.356262,621.416626 662.492310,622.586060 663.044373,623.815857 
	C676.393494,653.550232 689.570374,683.361877 703.160583,714.022034 
	C694.151062,714.022034 685.783447,714.119324 677.424805,713.890991 
	C676.451416,713.864380 675.179688,712.193909 674.643799,711.014160 
	C672.855408,707.077515 671.573853,702.895752 669.593323,699.069153 
	C668.879272,697.689392 666.754944,696.235718 665.242920,696.201599 
	C654.419739,695.957581 643.586060,695.957947 632.762756,696.199585 
	C631.234741,696.233704 629.691772,697.927979 628.268860,699.003418 
	C627.804138,699.354614 627.701233,700.182190 627.428772,700.790039 
	C625.476746,705.145020 624.615234,711.089539 621.256165,713.395630 
	C618.059204,715.590332 612.253784,714.005615 607.594849,714.044495 
	C603.811462,714.076050 600.027649,714.050964 595.270996,714.050964 
	C602.153870,698.426147 608.701660,683.562134 615.409790,668.353638 
M644.557861,657.999268 
	C642.107178,664.116455 639.656433,670.233643 637.075012,676.677124 
	C645.050537,676.677124 652.430603,676.677124 660.712585,676.677124 
	C656.818359,666.864624 653.140930,657.598511 649.025574,647.228699 
	C647.331299,651.314392 646.092651,654.301208 644.557861,657.999268 
z"/>
<path fill="#FDB03F" opacity="1.000000" stroke="none" 
	d="
M868.926514,625.915161 
	C881.946655,655.281616 894.826294,684.286743 908.035400,714.033752 
	C899.036682,714.033752 890.790222,714.090088 882.546936,713.953613 
	C881.641602,713.938660 880.668335,712.908142 879.892456,712.173462 
	C879.450806,711.755371 879.357910,710.976440 879.087158,710.369263 
	C877.007507,705.705078 876.104980,699.231323 872.510132,696.885742 
	C868.851685,694.498718 862.540649,696.130066 857.390442,696.088074 
	C850.893677,696.035156 844.391541,696.213257 837.901245,695.999756 
	C835.079407,695.906921 833.699829,696.885559 832.802246,699.508484 
	C831.457397,703.438416 829.927551,707.335266 828.072876,711.044373 
	C827.418762,712.352600 825.614441,713.860779 824.275085,713.920166 
	C817.624207,714.214844 810.953369,714.064392 804.289551,714.048889 
	C803.302979,714.046570 802.316711,713.927917 800.592285,713.814514 
	C801.261597,711.869019 801.705261,710.187134 802.400574,708.616760 
	C814.725037,680.778931 827.137817,652.979919 839.343567,625.090332 
	C840.630737,622.149109 842.121643,621.060608 845.249390,621.175842 
	C851.072327,621.390320 856.921326,621.468628 862.734924,621.152100 
	C866.272278,620.959473 868.020752,622.363647 868.926514,625.915161 
M859.710266,661.785217 
	C857.864624,657.270081 856.019043,652.754883 853.735535,647.168457 
	C849.507080,657.739685 845.778992,667.059998 841.925598,676.693604 
	C849.945312,676.693604 857.325256,676.693604 865.473633,676.693604 
	C863.522705,671.648926 861.754517,667.077026 859.710266,661.785217 
z"/>
<path fill="#FDB03E" opacity="1.000000" stroke="none" 
	d="
M1461.619873,714.064026 
	C1454.838379,714.057495 1448.500977,714.236389 1442.188843,713.915588 
	C1440.655396,713.837708 1438.565063,712.453247 1437.841309,711.082947 
	C1435.908203,707.423828 1434.445557,703.493042 1433.057129,699.577515 
	C1432.164307,697.059448 1430.941406,695.937195 1428.041382,695.990356 
	C1417.387085,696.186035 1406.723633,695.935608 1396.072632,696.208557 
	C1394.427979,696.250793 1392.363281,697.821289 1391.326172,699.278198 
	C1389.917114,701.257568 1389.297363,703.803040 1388.362671,706.115295 
	C1385.153809,714.053162 1385.157715,714.058777 1376.403687,714.049133 
	C1371.075317,714.043274 1365.746826,714.026794 1360.418579,713.997070 
	C1360.099731,713.995300 1359.781738,713.833191 1358.829834,713.571716 
	C1359.395874,712.060547 1359.871826,710.570312 1360.499390,709.147034 
	C1372.644043,681.605225 1384.912964,654.117310 1396.853271,626.487366 
	C1398.696289,622.222778 1400.979004,620.812073 1405.436523,621.148987 
	C1410.735107,621.549561 1416.103394,621.005615 1421.406738,621.373535 
	C1423.128784,621.492920 1425.627319,622.794373 1426.272827,624.229126 
	C1439.375366,653.347900 1452.261475,682.564148 1465.175537,711.767639 
	C1465.429321,712.341614 1465.499023,712.997009 1465.710693,713.836121 
	C1464.343384,713.922424 1463.208252,713.994080 1461.619873,714.064026 
M1419.863892,666.575317 
	C1417.407837,660.515442 1414.951782,654.455566 1411.989746,647.146973 
	C1407.763306,657.690247 1404.015503,667.039429 1400.196777,676.565796 
	C1408.258789,676.565796 1415.596436,676.565796 1423.748047,676.565796 
	C1422.378540,673.072632 1421.249146,670.192078 1419.863892,666.575317 
z"/>
<path fill="#FDB03E" opacity="1.000000" stroke="none" 
	d="
M1125.918091,641.844482 
	C1128.492920,636.016479 1131.110840,630.612549 1133.276001,625.033020 
	C1134.443359,622.025146 1136.140869,621.059509 1139.263916,621.176392 
	C1145.254639,621.400574 1151.272095,621.026245 1157.250732,621.376099 
	C1158.926392,621.474121 1161.354126,622.851074 1162.002686,624.288452 
	C1174.869751,652.804504 1187.529541,681.414124 1200.209595,710.014343 
	C1200.663696,711.038818 1200.894531,712.162292 1201.474854,714.028992 
	C1192.751465,714.028992 1184.516846,714.154846 1176.295654,713.879028 
	C1175.195557,713.842163 1173.784546,711.947815 1173.173340,710.613220 
	C1171.512695,706.986938 1170.061279,703.246887 1168.805054,699.459656 
	C1167.919556,696.790039 1166.373413,695.974243 1163.628906,696.010132 
	C1152.965576,696.149780 1142.296021,695.934021 1131.638062,696.211304 
	C1130.035278,696.253052 1128.455811,698.176941 1126.926270,699.312134 
	C1126.567505,699.578430 1126.434937,700.168518 1126.234375,700.625610 
	C1124.308350,705.014404 1123.512207,711.109863 1120.155518,713.321899 
	C1116.753540,715.563782 1110.823242,713.992493 1105.999756,714.045715 
	C1102.378296,714.085754 1098.755981,714.053650 1094.079834,714.053650 
	C1104.879395,689.567566 1115.326050,665.881531 1125.918091,641.844482 
M1137.976929,671.427307 
	C1137.361694,673.092346 1136.746460,674.757385 1136.031982,676.691162 
	C1143.944702,676.691162 1151.320557,676.691162 1159.559814,676.691162 
	C1155.648438,666.886414 1151.949341,657.613647 1147.753906,647.096863 
	C1144.168091,655.976990 1141.196167,663.336975 1137.976929,671.427307 
z"/>
<path fill="#1E479A" opacity="1.000000" stroke="none" 
	d="
M801.756348,835.000000 
	C801.756287,843.129883 801.756287,850.759766 801.756287,858.573242 
	C793.909302,859.875977 787.922119,859.232117 782.600586,852.053589 
	C771.313904,836.828369 758.896423,822.440979 746.926453,807.723206 
	C745.807312,806.347107 744.572632,805.065002 742.556946,802.802429 
	C742.556946,822.069641 742.556946,840.207825 742.556946,858.688721 
	C737.078857,858.688721 732.192688,858.688721 726.980713,858.688721 
	C726.980713,831.015381 726.980713,803.275574 726.980713,775.199341 
	C733.743591,774.269043 739.677002,773.857727 744.965332,780.848022 
	C757.800537,797.813721 771.604370,814.046692 785.783325,831.518066 
	C785.783325,812.057922 785.783325,793.626282 785.783325,774.982788 
	C791.355713,774.982788 796.292847,774.982788 801.756409,774.982788 
	C801.756409,794.972656 801.756409,814.736328 801.756348,835.000000 
z"/>
<path fill="#FDB140" opacity="1.000000" stroke="none" 
	d="
M1224.162842,690.000000 
	C1224.162720,673.882263 1224.162720,658.264465 1224.162720,642.196411 
	C1214.578613,642.196411 1205.482300,642.196411 1195.969238,642.196411 
	C1195.969238,635.073486 1195.969238,628.402039 1195.969238,621.482117 
	C1223.535645,621.482117 1250.786987,621.482117 1278.406006,621.482117 
	C1278.406006,628.232666 1278.406006,634.786377 1278.406006,641.979919 
	C1269.269165,641.979919 1260.210449,641.979919 1250.653320,641.979919 
	C1250.653320,666.182678 1250.653320,689.758911 1250.653320,713.696655 
	C1241.744995,713.696655 1233.343872,713.696655 1224.162842,713.696655 
	C1224.162842,706.021790 1224.162842,698.260864 1224.162842,690.000000 
z"/>
<path fill="#1D4699" opacity="1.000000" stroke="none" 
	d="
M824.750366,788.021240 
	C824.750366,783.530029 824.750366,779.534485 824.750366,775.333984 
	C825.413025,775.131592 826.006165,774.790527 826.597778,774.793274 
	C840.254150,774.857178 853.948120,774.354370 867.556702,775.207764 
	C884.083130,776.244080 897.640137,783.388916 904.317200,799.323486 
	C910.891113,815.011658 909.416382,830.374695 898.474792,843.945068 
	C890.692871,853.596619 879.811157,858.024719 867.820557,858.603088 
	C853.710083,859.283630 839.541626,858.762512 824.750305,858.762512 
	C824.750305,835.348633 824.750305,811.932739 824.750366,788.021240 
M891.837769,822.910095 
	C893.650208,807.119568 888.205322,796.090210 875.742554,790.838135 
	C864.274292,786.005005 852.296387,788.554810 840.540039,787.921997 
	C840.540039,807.668274 840.540039,826.577148 840.540039,845.363342 
	C849.449097,845.363342 858.113098,846.013550 866.640625,845.212219 
	C879.696350,843.985229 888.355591,836.765991 891.837769,822.910095 
z"/>
<path fill="#FDB03F" opacity="1.000000" stroke="none" 
	d="
M1309.882324,671.000000 
	C1309.882324,661.226257 1309.882324,651.952515 1309.882324,642.220459 
	C1300.201904,642.220459 1291.113647,642.220459 1281.607910,642.220459 
	C1281.607910,635.214172 1281.607910,628.658875 1281.607910,621.667114 
	C1308.807739,621.667114 1336.143921,621.667114 1363.822021,621.667114 
	C1363.822021,628.290100 1363.822021,634.839661 1363.822021,641.822510 
	C1354.787354,641.822510 1345.862183,641.822510 1336.350708,641.822510 
	C1336.350708,665.924377 1336.350708,689.611328 1336.350708,713.675903 
	C1327.388916,713.675903 1319.005981,713.675903 1309.882324,713.675903 
	C1309.882324,699.638672 1309.882324,685.569336 1309.882324,671.000000 
z"/>
<path fill="#1F489A" opacity="1.000000" stroke="none" 
	d="
M618.326294,782.653259 
	C634.068848,796.979248 630.764099,818.295227 610.704590,831.802002 
	C616.783508,840.640137 622.865784,849.483093 629.431152,859.028442 
	C623.888733,859.028442 619.126160,859.233521 614.402588,858.894409 
	C613.108521,858.801392 611.639771,857.289368 610.750061,856.065857 
	C606.248352,849.875122 602.022278,843.481506 597.430176,837.361084 
	C596.411194,836.002930 594.339783,834.750122 592.692688,834.668762 
	C586.385681,834.357300 580.054077,834.542847 573.161377,834.542847 
	C573.161377,842.661682 573.161377,850.551331 573.161377,858.733154 
	C567.686523,858.733154 562.778259,858.733154 557.542480,858.733154 
	C557.542480,830.945923 557.542480,803.199646 557.542480,774.746887 
	C559.898254,774.746887 562.326050,774.729614 564.753601,774.749939 
	C575.576721,774.840576 586.401917,774.839905 597.222046,775.074097 
	C604.921021,775.240723 611.890747,777.775452 618.326294,782.653259 
M584.487305,821.679688 
	C589.773865,821.271301 595.191040,821.453857 600.317322,820.320496 
	C608.684937,818.470520 612.407715,812.987732 612.319519,804.332886 
	C612.237549,796.289856 608.137390,790.403076 599.953247,789.186768 
	C591.189697,787.884460 582.213135,788.015015 573.283203,787.517639 
	C573.283203,799.474182 573.283203,810.374329 573.283203,821.679871 
	C576.900696,821.679871 580.204895,821.679871 584.487305,821.679688 
z"/>
<path fill="#1E479A" opacity="1.000000" stroke="none" 
	d="
M1310.318604,858.925903 
	C1309.586670,857.597473 1309.091187,856.353821 1309.089111,855.109375 
	C1309.044922,829.286804 1309.054932,803.464172 1309.066895,777.641541 
	C1309.067261,776.826111 1309.204468,776.010742 1309.257324,775.423828 
	C1324.034302,775.423828 1338.829102,773.982605 1353.233887,775.739502 
	C1379.050659,778.888428 1384.661499,802.525085 1376.652100,818.072449 
	C1373.845581,823.520142 1368.285522,827.549194 1363.292358,832.976501 
	C1368.470337,840.520691 1374.528076,849.346436 1381.160156,859.009216 
	C1375.636108,859.009216 1370.771606,859.218140 1365.947388,858.868958 
	C1364.669800,858.776428 1363.253784,857.156677 1362.350708,855.912109 
	C1357.854858,849.715637 1353.577881,843.359802 1349.049805,837.187683 
	C1348.187134,836.011963 1346.568115,834.713623 1345.251831,834.662537 
	C1338.640381,834.406006 1332.013672,834.544861 1324.965942,834.544861 
	C1324.965942,842.780945 1324.965942,850.544678 1324.965942,859.010376 
	C1319.959473,859.010376 1315.372070,859.010376 1310.318604,858.925903 
M1354.366455,789.848083 
	C1344.704956,788.942627 1335.043457,788.037170 1325.103271,787.105591 
	C1325.103271,799.378540 1325.103271,810.276672 1325.103271,821.080261 
	C1333.313599,821.080261 1341.285889,821.597046 1349.160400,820.939697 
	C1357.589478,820.236023 1362.562744,815.421326 1363.917725,808.339478 
	C1365.444580,800.359497 1362.620972,794.504761 1354.366455,789.848083 
z"/>
<path fill="#1C469A" opacity="1.000000" stroke="none" 
	d="
M179.125580,721.057129 
	C217.214874,721.057373 254.820786,721.057373 292.755188,721.057373 
	C292.755188,730.801147 292.755188,740.173157 292.755188,749.797913 
	C253.011292,749.797913 213.429123,749.797913 173.439331,749.797913 
	C173.439331,740.496277 173.439331,731.119385 173.439331,721.056946 
	C175.119446,721.056946 176.880814,721.056946 179.125580,721.057129 
z"/>
<path fill="#1F489A" opacity="1.000000" stroke="none" 
	d="
M1000.122437,817.000000 
	C1000.122437,802.851074 1000.122437,789.202148 1000.122437,775.149414 
	C1020.692139,775.149414 1041.053589,775.149414 1061.701904,775.149414 
	C1061.701904,779.169312 1061.701904,783.239441 1061.701904,787.833496 
	C1046.581421,787.833496 1031.521973,787.833496 1016.191162,787.833496 
	C1016.191162,795.274597 1016.191162,802.202759 1016.191162,809.781372 
	C1029.466797,809.781372 1042.830933,809.781372 1056.430420,809.781372 
	C1056.430420,814.342834 1056.430420,818.258118 1056.430420,822.677490 
	C1042.980957,822.677490 1029.746826,822.677490 1016.216431,822.677490 
	C1016.216431,830.570374 1016.216431,837.963928 1016.216431,845.843018 
	C1031.910034,845.843018 1047.485352,845.843018 1063.334595,845.843018 
	C1063.334595,850.400024 1063.334595,854.475220 1063.334595,858.795288 
	C1042.341675,858.795288 1021.584290,858.795288 1000.122375,858.795288 
	C1000.122375,845.009705 1000.122375,831.254822 1000.122437,817.000000 
z"/>
<path fill="#1E479A" opacity="1.000000" stroke="none" 
	d="
M1283.784180,774.754272 
	C1286.049194,774.754089 1287.844482,774.754089 1289.800293,774.754089 
	C1289.800293,779.222717 1289.800293,783.196289 1289.800293,787.676392 
	C1274.708496,787.676392 1259.645142,787.676392 1244.199463,787.676392 
	C1244.199463,795.212158 1244.199463,802.255554 1244.199463,809.769104 
	C1257.437012,809.769104 1270.694702,809.769104 1284.239990,809.769104 
	C1284.239990,814.158936 1284.239990,818.088257 1284.239990,822.537048 
	C1270.990845,822.537048 1257.769287,822.537048 1244.182495,822.537048 
	C1244.182495,830.436523 1244.182495,837.835938 1244.182495,845.732178 
	C1259.692261,845.732178 1275.274170,845.732178 1291.158203,845.732178 
	C1291.158203,850.299561 1291.158203,854.379517 1291.158203,858.749817 
	C1270.302490,858.749817 1249.552002,858.749817 1228.420898,858.749817 
	C1228.420898,830.952942 1228.420898,803.076660 1228.420898,774.754395 
	C1246.715454,774.754395 1265.014893,774.754395 1283.784180,774.754272 
z"/>
<path fill="#1C469A" opacity="1.000000" stroke="none" 
	d="
M648.343872,774.800049 
	C668.127075,774.795471 687.443237,774.795471 707.156738,774.795471 
	C707.156738,779.136230 707.156738,783.185242 707.156738,787.757690 
	C692.141785,787.757690 677.076904,787.757690 661.654053,787.757690 
	C661.654053,795.305298 661.654053,802.343994 661.654053,809.745728 
	C674.882629,809.745728 688.011719,809.745728 701.534058,809.745728 
	C701.534058,814.128540 701.534058,818.165222 701.534058,822.768677 
	C688.255493,822.768677 675.009216,822.768677 661.533081,822.768677 
	C661.533081,830.596497 661.533081,837.866516 661.533081,845.627075 
	C677.199585,845.627075 692.767456,845.627075 708.706665,845.627075 
	C708.706665,850.170898 708.706665,854.238220 708.706665,858.671875 
	C687.945801,858.671875 667.044189,858.671875 645.969910,858.671875 
	C645.868835,857.734985 645.672485,856.759705 645.671753,855.784302 
	C645.652466,830.120605 645.620117,804.456726 645.745667,778.793701 
	C645.752197,777.460571 647.134827,776.134155 648.343872,774.800049 
z"/>
<path fill="#1F4899" opacity="1.000000" stroke="none" 
	d="
M930.704834,778.699463 
	C948.128174,770.449402 964.693054,772.567932 981.519104,780.710876 
	C979.716187,785.097046 978.159119,788.885071 976.898560,791.951660 
	C969.584534,790.082947 962.817688,787.654785 955.859558,786.819092 
	C951.122864,786.250244 945.979980,787.413208 941.275818,788.724426 
	C937.209717,789.857788 934.747131,793.204041 934.639038,797.743591 
	C934.531128,802.271240 937.334045,804.954346 941.086243,806.309937 
	C946.380554,808.222656 951.915588,809.459167 957.309265,811.110229 
	C962.063904,812.565796 966.850708,813.977356 971.472351,815.792664 
	C979.614807,818.990845 984.475830,824.928101 984.923828,833.854248 
	C985.393066,843.203125 981.529053,850.886169 973.211243,854.778015 
	C966.911987,857.725342 959.682129,859.285706 952.710510,860.061646 
	C940.337158,861.438660 925.355713,856.747375 917.257874,850.008667 
	C918.944702,846.215210 920.667603,842.340393 922.526672,838.159546 
	C932.843933,845.128845 943.813049,848.350891 955.869019,846.936890 
	C958.630188,846.613098 961.503052,845.904175 963.970581,844.666748 
	C971.010437,841.136230 971.375244,832.554626 964.436401,828.824158 
	C960.264465,826.581299 955.431763,825.529358 950.845398,824.105408 
	C945.293091,822.381653 939.587585,821.106934 934.127319,819.140808 
	C925.502869,816.035217 919.651855,810.228760 918.972412,800.635925 
	C918.301270,791.160828 922.318237,783.898071 930.704834,778.699463 
z"/>
<path fill="#1F4899" opacity="1.000000" stroke="none" 
	d="
M1442.080566,838.544983 
	C1443.059692,832.453186 1439.855469,829.215210 1435.113281,827.528381 
	C1429.801147,825.638794 1424.236450,824.471436 1418.827759,822.837219 
	C1414.375977,821.492004 1409.910156,820.128601 1405.594604,818.411255 
	C1396.843140,814.928711 1391.993408,808.455078 1391.963867,798.896912 
	C1391.933594,789.087402 1396.770630,782.123840 1405.413452,777.851990 
	C1415.189575,773.019958 1425.631348,772.671692 1436.115845,774.409241 
	C1440.823608,775.189453 1445.346558,777.089355 1449.950195,778.491516 
	C1453.437134,779.553406 1454.945801,781.359253 1452.885254,785.064575 
	C1451.536987,787.488831 1450.673462,790.182556 1449.488892,793.003052 
	C1440.056885,788.112671 1430.600220,785.279785 1420.329834,786.922424 
	C1417.906982,787.309875 1415.443604,788.053467 1413.253418,789.144348 
	C1409.755859,790.886475 1407.707031,793.792358 1407.700439,797.920776 
	C1407.694092,801.989746 1409.972168,804.673096 1413.400024,805.942017 
	C1418.836548,807.954590 1424.503784,809.337524 1430.048218,811.067505 
	C1434.956299,812.598938 1439.928223,813.993408 1444.697266,815.888062 
	C1452.848267,819.126221 1457.629639,825.184570 1457.968140,834.097229 
	C1458.322510,843.422058 1454.181519,850.560059 1446.083008,855.071228 
	C1436.206665,860.572632 1425.435181,861.063049 1414.533325,859.561646 
	C1405.899048,858.372620 1397.622314,856.001526 1390.189575,850.218262 
	C1391.903320,846.333069 1393.610718,842.462646 1394.775391,839.822083 
	C1403.779663,842.367554 1412.174194,845.401855 1420.834595,846.923401 
	C1425.499878,847.743164 1430.809937,846.579346 1435.460693,845.128906 
	C1438.034790,844.326172 1439.849121,841.086670 1442.080566,838.544983 
z"/>
<path fill="#1D4699" opacity="1.000000" stroke="none" 
	d="
M139.440659,652.443176 
	C146.133194,646.775085 152.574585,641.355835 159.264236,635.727722 
	C158.300079,662.309692 157.365143,688.086243 156.430298,713.860291 
	C130.339127,714.297241 125.055672,716.876221 107.515129,738.176819 
	C105.941414,721.669006 108.217255,706.418579 112.718979,691.271362 
	C117.415359,675.469299 127.527222,663.601013 139.440659,652.443176 
z"/>
<path fill="#1D4699" opacity="1.000000" stroke="none" 
	d="
M350.413391,682.525635 
	C357.727417,699.572815 361.253265,716.933350 360.375977,736.496460 
	C347.410309,718.909302 331.742767,709.929077 310.649567,713.899902 
	C309.305908,687.997192 307.968750,662.220581 306.600433,635.842773 
	C323.656830,649.089722 340.641876,662.088684 350.413391,682.525635 
z"/>
<path fill="#1C459A" opacity="1.000000" stroke="none" 
	d="
M1107.000000,774.795837 
	C1118.972290,774.795959 1130.444702,774.795959 1142.276611,774.795959 
	C1142.276611,779.169495 1142.276611,783.225403 1142.276611,787.828064 
	C1133.194458,787.828064 1124.134888,787.828064 1114.563232,787.828064 
	C1114.563232,811.739990 1114.563232,835.120728 1114.563232,858.763306 
	C1109.147583,858.763306 1104.253906,858.763306 1098.837402,858.763306 
	C1098.837402,835.190369 1098.837402,811.814026 1098.837402,787.981750 
	C1089.251465,787.981750 1080.173950,787.981750 1070.884766,787.981750 
	C1070.884766,783.413086 1070.884766,779.307922 1070.884766,774.795715 
	C1082.904541,774.795715 1094.702271,774.795715 1107.000000,774.795837 
z"/>
<path fill="#1C459A" opacity="1.000000" stroke="none" 
	d="
M501.896912,803.004700 
	C501.896912,797.871338 501.896912,793.237000 501.896912,788.079346 
	C492.525421,788.079346 483.466675,788.079346 474.113770,788.079346 
	C474.113770,783.499817 474.113770,779.443176 474.113770,775.084717 
	C497.902496,775.084717 521.588989,775.084717 545.517090,775.084717 
	C545.517090,779.303589 545.517090,783.238892 545.517090,787.844971 
	C536.289001,787.844971 527.084351,787.844971 517.548340,787.844971 
	C517.548340,811.767822 517.548340,835.026001 517.548340,858.656372 
	C512.331177,858.656372 507.456818,858.656372 501.896942,858.656372 
	C501.896942,840.314819 501.896942,821.909302 501.896912,803.004700 
z"/>
<path fill="#1C459A" opacity="1.000000" stroke="none" 
	d="
M1188.244385,795.107178 
	C1188.244263,816.544556 1188.244263,837.494507 1188.244263,858.737061 
	C1182.989502,858.737061 1178.098389,858.737061 1172.686035,858.737061 
	C1172.686035,835.156677 1172.686035,811.771973 1172.686035,788.060974 
	C1163.228271,788.060974 1154.279419,788.060974 1144.920166,788.060974 
	C1144.920166,783.549988 1144.920166,779.365417 1144.920166,774.979858 
	C1168.674683,774.979858 1192.279297,774.979858 1216.200806,774.979858 
	C1216.200806,779.220886 1216.200806,783.295044 1216.200806,787.839050 
	C1207.013794,787.839050 1197.936646,787.839050 1188.244385,787.839050 
	C1188.244385,790.404114 1188.244385,792.511902 1188.244385,795.107178 
z"/>
<path fill="#FDB03E" opacity="1.000000" stroke="none" 
	d="
M223.857941,796.732056 
	C219.451065,809.018311 212.301163,818.668152 200.779617,826.315247 
	C202.796204,813.033630 197.700745,802.153442 193.719055,790.953735 
	C189.624954,779.437683 192.042725,768.601807 198.639297,758.647339 
	C199.546005,757.279114 201.755142,756.139282 203.432877,756.033936 
	C208.744568,755.700256 214.094864,756.039429 219.420929,755.852783 
	C222.329224,755.750854 223.732468,756.894043 224.158310,759.680176 
	C226.028473,771.915771 227.252640,784.141357 223.857941,796.732056 
z"/>
<path fill="#AAACAE" opacity="1.000000" stroke="none" 
	d="
M1267.749390,565.672241 
	C1265.591919,574.126709 1260.603149,578.278076 1250.916504,578.722778 
	C1241.304688,579.163940 1231.656738,578.819275 1221.542480,578.819275 
	C1221.542480,560.978577 1221.542480,543.324646 1221.542480,525.463989 
	C1232.080811,525.463989 1242.760132,524.434509 1253.140869,525.753906 
	C1263.497559,527.070190 1269.783203,538.895081 1259.041748,550.862671 
	C1264.963501,553.840881 1267.838745,558.720154 1267.749390,565.672241 
M1257.734009,557.775146 
	C1248.663330,552.486450 1238.987671,554.940735 1229.332031,554.749573 
	C1229.332031,561.122070 1229.332031,566.673218 1229.332031,573.083008 
	C1237.057007,572.736877 1244.516113,572.941772 1251.805908,571.928711 
	C1259.536987,570.854309 1261.698486,565.549622 1257.734009,557.775146 
M1229.263794,547.092041 
	C1236.130737,547.269043 1243.020020,547.852966 1249.856323,547.474609 
	C1254.140503,547.237549 1256.765015,543.821350 1256.686890,539.552917 
	C1256.614136,535.585327 1254.232300,532.355225 1250.077393,531.921448 
	C1243.240234,531.207764 1236.338867,531.109680 1229.069458,530.731506 
	C1229.069458,536.579102 1229.069458,541.377258 1229.263794,547.092041 
z"/>
<path fill="#A8AAAC" opacity="1.000000" stroke="none" 
	d="
M1360.172852,576.290527 
	C1344.611084,583.167419 1327.331299,578.454163 1320.445801,565.716919 
	C1314.491455,554.702820 1315.913574,541.903870 1324.107300,532.760315 
	C1331.741089,524.241455 1346.732300,521.358032 1358.297363,526.435913 
	C1368.747925,531.024597 1374.325073,539.431519 1374.799438,550.607422 
	C1375.272095,561.747681 1370.569214,570.581299 1360.172852,576.290527 
M1366.824219,548.991821 
	C1366.587036,548.021118 1366.363525,547.046875 1366.110718,546.080322 
	C1363.692749,536.837646 1356.130249,531.014709 1346.347046,530.856567 
	C1336.075928,530.690613 1328.443359,536.105957 1325.656738,545.536255 
	C1322.952393,554.688171 1326.528198,564.925476 1334.266357,569.597656 
	C1341.382935,573.894592 1348.862427,574.065002 1356.153076,570.265137 
	C1364.311890,566.012695 1367.067627,558.609680 1366.824219,548.991821 
z"/>
<path fill="#A8AAAC" opacity="1.000000" stroke="none" 
	d="
M598.001953,541.219849 
	C602.926208,556.988708 597.475464,570.728149 584.141418,576.867981 
	C570.401184,583.194885 553.754517,578.845581 546.241516,566.609680 
	C540.106079,556.617432 540.177368,546.147339 546.596130,536.469360 
	C553.541260,525.997681 564.054138,522.601196 576.235474,524.393250 
	C586.388367,525.886841 593.507141,531.618408 598.001953,541.219849 
M555.019043,537.573914 
	C553.504089,540.678650 551.510437,543.645264 550.567505,546.914917 
	C548.127747,555.374756 551.913757,564.704163 559.281677,569.576233 
	C566.307434,574.222046 577.630371,573.745117 584.091431,568.531189 
	C591.272705,562.736023 594.059570,553.099365 590.961243,544.776855 
	C585.384583,529.797546 568.422791,526.091919 555.019043,537.573914 
z"/>
<path fill="#AAACAE" opacity="1.000000" stroke="none" 
	d="
M781.856079,578.945190 
	C779.645020,578.118835 777.638794,577.552063 776.080627,576.386292 
	C774.811646,575.436890 773.809021,573.889526 773.153503,572.402283 
	C769.499634,564.111694 763.294983,561.399292 754.440796,562.521057 
	C750.686035,562.996765 749.549133,564.005432 749.807739,567.571960 
	C750.058655,571.031799 749.862244,574.524048 749.862244,578.614014 
	C747.343628,578.732239 745.120911,578.836548 742.418945,578.963379 
	C742.418945,560.955444 742.418945,543.288025 742.418945,525.691895 
	C752.013367,525.691895 761.622925,524.920837 771.037903,525.942566 
	C778.209717,526.720886 783.429749,531.733459 784.822754,539.254700 
	C786.564087,548.656616 783.614746,554.855652 775.845215,559.596619 
	C775.294861,559.932495 774.759338,560.292542 773.801758,560.908203 
	C777.811646,566.696533 781.733887,572.358398 786.029663,578.559387 
	C784.384827,578.727722 783.319702,578.836731 781.856079,578.945190 
M765.710754,555.594543 
	C766.191162,555.467957 766.669067,555.330627 767.152405,555.216370 
	C774.933350,553.378052 777.289856,550.460938 777.137085,542.850464 
	C777.005615,536.305786 774.126648,533.080139 766.684998,532.002014 
	C762.289246,531.365112 757.788879,531.471069 753.340881,531.166016 
	C750.798096,530.991516 749.765503,532.003296 749.815857,534.605042 
	C749.931396,540.576111 749.941284,546.552795 749.814575,552.523376 
	C749.757385,555.213928 750.940613,555.982666 753.410706,555.891296 
	C757.222046,555.750183 761.040649,555.806274 765.710754,555.594543 
z"/>
<path fill="#A9ABAD" opacity="1.000000" stroke="none" 
	d="
M479.990570,571.897461 
	C479.990265,556.140259 479.990265,540.870483 479.990265,525.583374 
	C489.914368,525.583374 499.424530,524.684265 508.675110,525.848083 
	C517.132141,526.912109 522.418030,532.816467 523.290955,541.798401 
	C524.157532,550.716492 519.835876,556.636047 511.791840,560.768250 
	C515.839172,566.624023 519.763306,572.301514 524.010376,578.446228 
	C519.187988,579.377686 515.198608,579.738220 512.872681,574.721802 
	C512.459229,573.830078 511.744537,573.080505 511.188629,572.252014 
	C504.274170,561.947815 501.418915,560.814697 488.089600,563.398071 
	C488.089600,568.204041 488.089600,573.127686 488.089600,578.478149 
	C485.368195,578.478149 483.148285,578.478149 479.990875,578.478149 
	C479.990875,576.532410 479.990875,574.458618 479.990570,571.897461 
M487.911072,546.460938 
	C487.911072,549.398315 487.911072,552.335632 487.911072,556.576477 
	C495.284302,555.742126 502.029694,555.456238 508.548981,554.090881 
	C513.814087,552.988220 515.748901,548.330017 515.685181,543.367004 
	C515.624084,538.609070 513.589661,534.093445 508.647034,533.042053 
	C502.020508,531.632385 495.151642,531.362000 487.910889,530.549072 
	C487.910889,536.532410 487.910889,541.004395 487.911072,546.460938 
z"/>
<path fill="#FDB03F" opacity="1.000000" stroke="none" 
	d="
M264.049072,765.929993 
	C262.440796,772.437805 260.596313,778.415833 259.301910,784.510620 
	C257.865845,791.272339 256.865662,798.130615 255.823044,804.969299 
	C255.537308,806.843445 255.779617,808.797974 255.779617,812.183594 
	C252.921890,809.412354 250.330612,807.867554 249.154648,805.591431 
	C244.089172,795.787048 238.655014,786.047363 234.971848,775.708191 
	C233.159866,770.621826 234.720490,764.270325 235.134033,758.518494 
	C235.201736,757.576782 237.217682,756.055847 238.364899,756.026123 
	C246.660187,755.811218 254.963608,755.910828 264.055420,755.910828 
	C264.055420,759.287170 264.055420,762.369446 264.049072,765.929993 
z"/>
<path fill="#A8AAAC" opacity="1.000000" stroke="none" 
	d="
M814.831116,545.800903 
	C817.704285,539.565857 820.197083,533.553284 823.302002,527.875427 
	C824.134277,526.353333 826.814697,525.140991 828.679871,525.093567 
	C830.344299,525.051270 832.929199,526.400696 833.610535,527.843201 
	C841.072205,543.640564 848.250854,559.571899 855.456421,575.489441 
	C855.837524,576.331238 855.768921,577.376648 855.911621,578.340576 
	C851.007202,579.961304 847.605042,579.102173 846.346008,573.736145 
	C844.807251,567.178345 840.814636,564.771301 834.024597,565.646484 
	C828.943237,566.301453 823.694519,566.015198 818.548767,565.693726 
	C814.891235,565.465210 812.923950,566.850403 811.968018,570.218628 
	C811.652954,571.328674 810.939514,572.325562 810.624023,573.435608 
	C809.139648,578.658936 805.738647,580.064880 800.273865,578.363953 
	C805.091492,567.591187 809.885986,556.869995 814.831116,545.800903 
M835.840210,549.704041 
	C833.464417,544.363464 831.088623,539.022949 828.289185,532.729980 
	C824.301392,541.998718 820.756775,550.237122 817.126038,558.675903 
	C824.980103,558.675903 831.880798,558.675903 839.434204,558.675903 
	C838.198914,555.557861 837.177979,552.980835 835.840210,549.704041 
z"/>
<path fill="#A8AAAC" opacity="1.000000" stroke="none" 
	d="
M699.926514,565.773010 
	C694.775208,565.772217 690.084839,566.092346 685.460938,565.675354 
	C681.387085,565.308044 679.246887,566.893127 678.121460,570.568176 
	C677.784363,571.669067 676.922546,572.627075 676.674316,573.734253 
	C675.461426,579.143799 672.030640,579.912354 666.654480,578.201904 
	C669.880371,571.010498 673.036560,563.942078 676.219971,556.885925 
	C680.528198,547.336914 684.741211,537.741272 689.294495,528.310242 
	C690.031555,526.783508 692.268860,525.194824 693.903687,525.092773 
	C695.814636,524.973572 698.959045,525.918274 699.619812,527.320007 
	C707.415588,543.855591 714.847839,560.562561 722.360291,577.231384 
	C722.484497,577.506958 722.416748,577.869019 722.431763,578.191162 
	C715.648193,579.874756 714.710876,579.887756 712.539246,573.326294 
	C710.420776,566.925598 706.786621,564.561279 699.926514,565.773010 
M699.318665,559.048828 
	C701.379822,559.048828 703.441040,559.048828 706.276489,559.048828 
	C702.243652,549.961426 698.599060,541.748718 694.548218,532.620605 
	C690.623901,541.855164 687.129761,550.077576 683.317139,559.049316 
	C689.129944,559.049316 693.747498,559.049316 699.318665,559.048828 
z"/>
<path fill="#2A529E" opacity="1.000000" stroke="none" 
	d="
M297.612061,808.051880 
	C292.948212,809.437927 288.720276,810.787842 285.166321,811.922607 
	C283.263672,801.696838 281.343140,791.374878 279.422607,781.052979 
	C279.508942,780.990417 279.595245,780.927856 279.681580,780.865295 
	C282.399384,789.770996 285.117218,798.676697 287.828033,807.559570 
	C306.907166,800.694946 325.135010,805.094299 335.683228,819.888672 
	C338.365784,823.651062 340.862915,825.208191 345.605774,825.266052 
	C354.634247,825.376160 363.396362,827.538330 371.326874,832.200684 
	C382.723755,838.901062 388.885010,849.030396 390.953491,861.945068 
	C391.213043,863.565430 392.290314,865.865906 393.580231,866.387024 
	C409.862946,872.964905 413.322540,884.735474 410.757324,901.277405 
	C409.500824,909.380188 408.834290,917.574341 408.046234,924.456421 
	C405.284027,917.080200 407.487305,908.186279 408.432220,899.457092 
	C410.111481,883.943481 404.522736,873.652832 390.046387,869.631042 
	C388.826111,869.292053 387.460449,867.251404 387.249573,865.838928 
	C384.276337,845.928101 373.595062,834.512512 353.755676,830.873779 
	C348.093567,829.835266 342.262177,829.719543 336.072479,829.139832 
	C328.608429,813.785339 315.770233,806.594116 297.612061,808.051880 
z"/>
<path fill="#AAACAE" opacity="1.000000" stroke="none" 
	d="
M1194.835449,547.990112 
	C1194.844604,556.119629 1195.435425,563.813477 1190.834717,570.663452 
	C1185.806641,578.149597 1176.455566,581.231140 1165.031006,578.919678 
	C1156.864502,577.267395 1149.900635,570.792419 1149.408081,562.263733 
	C1148.692505,549.875977 1149.224487,537.416199 1149.224487,525.051575 
	C1156.289917,523.540588 1156.839844,523.941589 1156.846191,530.418152 
	C1156.854980,539.237488 1156.920166,548.057556 1156.836670,556.876099 
	C1156.700928,571.200195 1168.629150,575.884460 1179.566162,571.008240 
	C1186.002808,568.138367 1186.748047,561.792114 1186.949951,555.753540 
	C1187.238892,547.110168 1187.015747,538.450073 1187.037842,529.797119 
	C1187.041992,528.177612 1187.171021,526.558289 1187.238525,525.027466 
	C1194.404053,523.599731 1194.828369,523.922852 1194.834106,530.519165 
	C1194.838989,536.176880 1194.835083,541.834656 1194.835449,547.990112 
z"/>
<path fill="#2A529E" opacity="1.000000" stroke="none" 
	d="
M174.892609,808.369873 
	C170.251190,808.876343 165.913757,809.053772 161.725235,809.937256 
	C150.762024,812.249939 142.330673,817.692139 139.701157,828.968506 
	C133.062286,828.298218 126.642250,826.943604 120.266685,827.127869 
	C91.726135,827.952759 72.327583,850.274048 74.872589,879.221191 
	C75.275002,883.798279 74.219810,885.788879 69.717598,887.492737 
	C62.931767,890.060852 56.080433,893.192688 50.320374,897.505310 
	C45.560959,901.068665 42.341824,906.689270 38.262093,911.613281 
	C38.328438,910.861267 38.214600,909.717224 38.549751,908.724854 
	C42.395123,897.338501 51.460255,891.060242 61.756363,886.837219 
	C68.581337,884.037903 72.033531,881.098938 70.662971,872.973572 
	C66.179298,846.392212 96.614807,816.463684 130.749985,823.456421 
	C132.540268,823.823120 134.350052,824.094727 136.467987,824.466248 
	C144.476730,808.161926 159.283524,805.821594 175.246552,806.128845 
	C175.937759,804.427979 176.565109,802.884277 177.192444,801.340637 
	C177.731705,801.602478 178.270950,801.864380 178.810211,802.126282 
	C177.628296,804.205078 176.446381,806.283936 174.892609,808.369873 
z"/>
<path fill="#A8AAAC" opacity="1.000000" stroke="none" 
	d="
M1026.313477,565.541748 
	C1019.863464,551.453247 1022.952454,537.333069 1033.948486,529.503967 
	C1045.634033,521.183899 1061.387329,522.116333 1072.049561,532.249023 
	C1070.276367,533.573853 1068.504028,534.897888 1066.446289,536.435242 
	C1060.827515,531.524658 1053.831909,529.411438 1045.778687,531.730591 
	C1037.164307,534.211365 1032.252686,540.055359 1031.110596,548.737122 
	C1029.955444,557.519348 1032.791992,564.904907 1040.691284,569.619995 
	C1048.191162,574.096619 1055.817505,574.000122 1063.260132,569.359863 
	C1068.137817,566.318726 1068.098877,566.256226 1071.652588,571.101929 
	C1063.873291,582.765625 1036.867798,583.919006 1026.313477,565.541748 
z"/>
<path fill="#A8AAAC" opacity="1.000000" stroke="none" 
	d="
M890.087402,532.753540 
	C878.365784,537.721741 874.751038,552.511230 881.023682,563.114746 
	C886.988892,573.198486 901.087402,575.893738 911.097351,568.706055 
	C915.267212,565.711914 916.872925,568.122192 918.815857,570.934631 
	C912.801941,580.764282 892.220825,583.159912 880.365051,573.617188 
	C867.784302,563.490845 866.401855,543.897095 877.260010,532.735168 
	C888.327637,521.357971 908.448792,520.893860 919.036255,532.259888 
	C917.320190,533.598511 915.572998,534.961426 913.611450,536.491516 
	C907.043152,530.836304 899.209229,529.025146 890.087402,532.753540 
z"/>
<path fill="#AAACAE" opacity="1.000000" stroke="none" 
	d="
M1418.001465,550.120972 
	C1422.781128,550.120789 1427.064209,550.120789 1431.632324,550.120789 
	C1431.632324,552.590088 1431.632324,554.483215 1431.632324,556.923828 
	C1422.823242,556.923828 1414.253540,556.923828 1405.127441,556.923828 
	C1405.127441,564.352783 1405.127441,571.253296 1405.127441,578.532349 
	C1402.345337,578.532349 1400.116943,578.532349 1397.451294,578.532349 
	C1397.451294,560.874268 1397.451294,543.197876 1397.451294,525.201172 
	C1410.041992,525.201172 1422.447388,525.201172 1434.840576,525.201172 
	C1436.541992,530.982605 1436.040039,531.737427 1430.375122,531.753662 
	C1422.109619,531.777283 1413.844116,531.759705 1405.294800,531.759705 
	C1405.294800,538.016846 1405.294800,543.609680 1405.294800,550.121155 
	C1409.365356,550.121155 1413.435181,550.121155 1418.001465,550.120972 
z"/>
<path fill="#AAACAE" opacity="1.000000" stroke="none" 
	d="
M639.927979,536.160034 
	C639.926453,550.431946 639.926453,564.222229 639.926453,578.629761 
	C637.419617,578.740479 635.195862,578.838684 632.261414,578.968262 
	C632.261414,563.283875 632.261414,547.937378 632.261414,531.760437 
	C627.343628,531.760437 623.082764,531.528687 618.858398,531.822327 
	C614.133545,532.150574 612.280273,530.484436 613.788757,525.336121 
	C628.161804,525.336121 642.679016,525.336121 657.626831,525.336121 
	C657.626831,527.147217 657.626831,529.032166 657.626831,531.766541 
	C653.125549,531.766541 648.536499,531.895264 643.959045,531.720520 
	C640.992981,531.607300 639.527405,532.578186 639.927979,536.160034 
z"/>
<path fill="#AAACAE" opacity="1.000000" stroke="none" 
	d="
M958.933228,551.000427 
	C958.932983,560.438293 958.932983,569.376221 958.932983,578.612610 
	C956.131653,578.612610 953.906860,578.612610 951.171143,578.612610 
	C951.171143,563.140442 951.171143,547.907776 951.171143,531.761963 
	C946.283081,531.761963 941.882385,531.784058 937.481995,531.756348 
	C932.029114,531.722107 931.783020,531.370422 932.939270,525.202271 
	C947.406982,525.202271 961.934937,525.202271 976.756714,525.202271 
	C976.756714,527.388489 976.756714,529.275208 976.756714,531.705383 
	C970.878662,531.705383 965.292969,531.705383 958.933411,531.705383 
	C958.933411,538.316711 958.933411,544.408569 958.933228,551.000427 
z"/>
<path fill="#AAACAE" opacity="1.000000" stroke="none" 
	d="
M1111.001465,578.916382 
	C1105.224976,578.916870 1099.948120,578.916870 1094.370605,578.916870 
	C1094.370605,560.766174 1094.370605,543.209839 1094.370605,525.264832 
	C1096.735840,525.264832 1098.966431,525.264832 1101.854492,525.264832 
	C1101.854492,540.627808 1101.854492,556.002258 1101.854492,571.907227 
	C1111.728638,571.907227 1120.966919,571.907227 1130.774536,571.907227 
	C1130.883911,574.301086 1130.969971,576.184692 1131.094727,578.915955 
	C1124.337402,578.915955 1117.919189,578.915955 1111.001465,578.916382 
z"/>
<path fill="#F0AA1A" opacity="1.000000" stroke="none" 
	d="
M200.838715,667.859680 
	C204.144745,656.083679 207.450775,644.307617 210.857376,632.173401 
	C201.027145,624.655579 191.055344,617.029541 179.821945,608.438660 
	C183.562668,608.265076 185.803253,608.117188 188.046066,608.064697 
	C197.199692,607.850098 206.362289,607.817322 215.500015,607.320801 
	C217.056290,607.236145 219.330063,605.512756 219.874985,604.032104 
	C223.871674,593.172607 227.512436,582.182068 231.611359,570.223511 
	C235.232483,580.471069 238.557587,589.877563 241.879105,599.285278 
	C242.264511,600.376953 242.816071,601.450134 242.970886,602.575806 
	C243.503296,606.447205 245.597275,607.598022 249.455170,607.509705 
	C260.399445,607.259338 271.353210,607.421936 282.303223,607.421936 
	C282.444550,607.876404 282.585876,608.330933 282.727203,608.785400 
	C276.300781,613.833862 269.920197,618.942017 263.437592,623.917236 
	C252.744308,632.124207 252.734543,632.082520 256.559387,644.826965 
	C258.878418,652.554077 261.131195,660.301086 262.528015,668.671387 
	C259.134338,666.400452 255.708542,664.175720 252.354462,661.847717 
	C247.300339,658.339844 242.022781,655.081665 237.352844,651.113953 
	C233.222153,647.604370 230.198135,648.205261 226.179871,651.299377 
	C218.416611,657.277100 210.238266,662.715759 201.739777,668.308716 
	C201.111298,668.113037 200.975006,667.986389 200.838715,667.859680 
z"/>
<path fill="#F0AA1A" opacity="1.000000" stroke="none" 
	d="
M201.430801,668.450073 
	C201.176865,668.891663 200.739700,669.122803 200.302551,669.353943 
	C200.326279,668.941345 200.350006,668.528748 200.606232,667.987915 
	C200.975006,667.986389 201.111298,668.113037 201.430801,668.450073 
z"/>
<path fill="#F0AA1A" opacity="1.000000" stroke="none" 
	d="
M263.417053,669.236084 
	C263.505341,669.136353 263.558167,669.461853 263.558167,669.461853 
	C263.558167,669.461853 263.328735,669.335815 263.417053,669.236084 
z"/>
<path fill="#FEFEFE" opacity="1.000000" stroke="none" 
	d="
M968.394531,665.428589 
	C960.092285,671.372620 951.070312,668.018250 942.130127,669.181396 
	C942.130127,659.967041 942.130127,651.391113 942.130127,641.586548 
	C949.338806,642.133301 956.735352,641.776062 963.644836,643.440735 
	C973.228088,645.749512 975.490845,657.062561 968.394531,665.428589 
z"/>
<path fill="#FEFEFE" opacity="1.000000" stroke="none" 
	d="
M1044.157104,642.016907 
	C1049.913208,642.300171 1055.265747,642.125244 1060.447876,642.981934 
	C1066.961548,644.058777 1070.511230,648.740540 1070.758057,655.173950 
	C1071.002563,661.554016 1067.756714,666.828613 1061.283325,667.976257 
	C1054.526245,669.174194 1047.515625,668.941406 1039.879883,669.376038 
	C1039.879883,660.412476 1039.789185,652.187683 1040.044434,643.973633 
	C1040.065918,643.284363 1042.411987,642.667297 1044.157104,642.016907 
z"/>
<path fill="#FFFBF7" opacity="1.000000" stroke="none" 
	d="
M644.705933,657.643677 
	C646.092651,654.301208 647.331299,651.314392 649.025574,647.228699 
	C653.140930,657.598511 656.818359,666.864624 660.712585,676.677124 
	C652.430603,676.677124 645.050537,676.677124 637.075012,676.677124 
	C639.656433,670.233643 642.107178,664.116455 644.705933,657.643677 
z"/>
<path fill="#FFFBF7" opacity="1.000000" stroke="none" 
	d="
M859.848328,662.145142 
	C861.754517,667.077026 863.522705,671.648926 865.473633,676.693604 
	C857.325256,676.693604 849.945312,676.693604 841.925598,676.693604 
	C845.778992,667.059998 849.507080,657.739685 853.735535,647.168457 
	C856.019043,652.754883 857.864624,657.270081 859.848328,662.145142 
z"/>
<path fill="#FFFBF7" opacity="1.000000" stroke="none" 
	d="
M1419.991943,666.943420 
	C1421.249146,670.192078 1422.378540,673.072632 1423.748047,676.565796 
	C1415.596436,676.565796 1408.258789,676.565796 1400.196777,676.565796 
	C1404.015503,667.039429 1407.763306,657.690247 1411.989746,647.146973 
	C1414.951782,654.455566 1417.407837,660.515442 1419.991943,666.943420 
z"/>
<path fill="#FFFBF7" opacity="1.000000" stroke="none" 
	d="
M1138.100586,671.062134 
	C1141.196167,663.336975 1144.168091,655.976990 1147.753906,647.096863 
	C1151.949341,657.613647 1155.648438,666.886414 1159.559814,676.691162 
	C1151.320557,676.691162 1143.944702,676.691162 1136.031982,676.691162 
	C1136.746460,674.757385 1137.361694,673.092346 1138.100586,671.062134 
z"/>
<path fill="#FCFCFE" opacity="1.000000" stroke="none" 
	d="
M891.773560,823.339722 
	C888.355591,836.765991 879.696350,843.985229 866.640625,845.212219 
	C858.113098,846.013550 849.449097,845.363342 840.540039,845.363342 
	C840.540039,826.577148 840.540039,807.668274 840.540039,787.921997 
	C852.296387,788.554810 864.274292,786.005005 875.742554,790.838135 
	C888.205322,796.090210 893.650208,807.119568 891.773560,823.339722 
z"/>
<path fill="#FBFCFD" opacity="1.000000" stroke="none" 
	d="
M583.998169,821.679810 
	C580.204895,821.679871 576.900696,821.679871 573.283203,821.679871 
	C573.283203,810.374329 573.283203,799.474182 573.283203,787.517639 
	C582.213135,788.015015 591.189697,787.884460 599.953247,789.186768 
	C608.137390,790.403076 612.237549,796.289856 612.319519,804.332886 
	C612.407715,812.987732 608.684937,818.470520 600.317322,820.320496 
	C595.191040,821.453857 589.773865,821.271301 583.998169,821.679810 
z"/>
<path fill="#FBFCFD" opacity="1.000000" stroke="none" 
	d="
M1354.737793,789.961365 
	C1362.620972,794.504761 1365.444580,800.359497 1363.917725,808.339478 
	C1362.562744,815.421326 1357.589478,820.236023 1349.160400,820.939697 
	C1341.285889,821.597046 1333.313599,821.080261 1325.103271,821.080261 
	C1325.103271,810.276672 1325.103271,799.378540 1325.103271,787.105591 
	C1335.043457,788.037170 1344.704956,788.942627 1354.737793,789.961365 
z"/>
<path fill="#FCFCFC" opacity="1.000000" stroke="none" 
	d="
M1257.955322,558.096680 
	C1261.698486,565.549622 1259.536987,570.854309 1251.805908,571.928711 
	C1244.516113,572.941772 1237.057007,572.736877 1229.332031,573.083008 
	C1229.332031,566.673218 1229.332031,561.122070 1229.332031,554.749573 
	C1238.987671,554.940735 1248.663330,552.486450 1257.955322,558.096680 
z"/>
<path fill="#FCFCFC" opacity="1.000000" stroke="none" 
	d="
M1229.166626,546.633728 
	C1229.069458,541.377258 1229.069458,536.579102 1229.069458,530.731506 
	C1236.338867,531.109680 1243.240234,531.207764 1250.077393,531.921448 
	C1254.232300,532.355225 1256.614136,535.585327 1256.686890,539.552917 
	C1256.765015,543.821350 1254.140503,547.237549 1249.856323,547.474609 
	C1243.020020,547.852966 1236.130737,547.269043 1229.166626,546.633728 
z"/>
<path fill="#FEFEFE" opacity="1.000000" stroke="none" 
	d="
M1366.879395,549.410095 
	C1367.067627,558.609680 1364.311890,566.012695 1356.153076,570.265137 
	C1348.862427,574.065002 1341.382935,573.894592 1334.266357,569.597656 
	C1326.528198,564.925476 1322.952393,554.688171 1325.656738,545.536255 
	C1328.443359,536.105957 1336.075928,530.690613 1346.347046,530.856567 
	C1356.130249,531.014709 1363.692749,536.837646 1366.110718,546.080322 
	C1366.363525,547.046875 1366.587036,548.021118 1366.879395,549.410095 
z"/>
<path fill="#FEFEFE" opacity="1.000000" stroke="none" 
	d="
M555.263916,537.302734 
	C568.422791,526.091919 585.384583,529.797546 590.961243,544.776855 
	C594.059570,553.099365 591.272705,562.736023 584.091431,568.531189 
	C577.630371,573.745117 566.307434,574.222046 559.281677,569.576233 
	C551.913757,564.704163 548.127747,555.374756 550.567505,546.914917 
	C551.510437,543.645264 553.504089,540.678650 555.263916,537.302734 
z"/>
<path fill="#FCFCFC" opacity="1.000000" stroke="none" 
	d="
M765.283447,555.686646 
	C761.040649,555.806274 757.222046,555.750183 753.410706,555.891296 
	C750.940613,555.982666 749.757385,555.213928 749.814575,552.523376 
	C749.941284,546.552795 749.931396,540.576111 749.815857,534.605042 
	C749.765503,532.003296 750.798096,530.991516 753.340881,531.166016 
	C757.788879,531.471069 762.289246,531.365112 766.684998,532.002014 
	C774.126648,533.080139 777.005615,536.305786 777.137085,542.850464 
	C777.289856,550.460938 774.933350,553.378052 767.152405,555.216370 
	C766.669067,555.330627 766.191162,555.467957 765.283447,555.686646 
z"/>
<path fill="#FCFCFC" opacity="1.000000" stroke="none" 
	d="
M487.910980,545.968689 
	C487.910889,541.004395 487.910889,536.532410 487.910889,530.549072 
	C495.151642,531.362000 502.020508,531.632385 508.647034,533.042053 
	C513.589661,534.093445 515.624084,538.609070 515.685181,543.367004 
	C515.748901,548.330017 513.814087,552.988220 508.548981,554.090881 
	C502.029694,555.456238 495.284302,555.742126 487.911072,556.576477 
	C487.911072,552.335632 487.911072,549.398315 487.910980,545.968689 
z"/>
<path fill="#FCFCFC" opacity="1.000000" stroke="none" 
	d="
M835.998657,550.053894 
	C837.177979,552.980835 838.198914,555.557861 839.434204,558.675903 
	C831.880798,558.675903 824.980103,558.675903 817.126038,558.675903 
	C820.756775,550.237122 824.301392,541.998718 828.289185,532.729980 
	C831.088623,539.022949 833.464417,544.363464 835.998657,550.053894 
z"/>
<path fill="#FCFCFC" opacity="1.000000" stroke="none" 
	d="
M698.841797,559.049072 
	C693.747498,559.049316 689.129944,559.049316 683.317139,559.049316 
	C687.129761,550.077576 690.623901,541.855164 694.548218,532.620605 
	C698.599060,541.748718 702.243652,549.961426 706.276489,559.048828 
	C703.441040,559.048828 701.379822,559.048828 698.841797,559.049072 
z"/>
</svg>